STARTFONT 2.3
FONT -FontForge-Shadows Into Light-Book-R-Normal--24-240-72-72-P-99-ISO10646-1
SIZE 24 72 72  2
FONTBOUNDINGBOX 34 39 -4 -10
COMMENT "Generated by fontforge, http://fontforge.sourceforge.net"
COMMENT "Copyright (c) 2010, Kimberly Geswein (kimberlygeswein.com)"
STARTPROPERTIES 40
FOUNDRY "FontForge"
FAMILY_NAME "Shadows Into Light"
WEIGHT_NAME "Book"
SLANT "R"
SETWIDTH_NAME "Normal"
ADD_STYLE_NAME ""
PIXEL_SIZE 24
POINT_SIZE 240
RESOLUTION_X 72
RESOLUTION_Y 72
SPACING "P"
AVERAGE_WIDTH 99
CHARSET_REGISTRY "ISO10646"
CHARSET_ENCODING "1"
FONTNAME_REGISTRY ""
CHARSET_COLLECTIONS "ISO8859-2 ISO8859-9 ISO8859-4 ISO10646-1"
BITS_PER_PIXEL 2
FONT_NAME "ShadowsIntoLight"
FACE_NAME "Shadows Into Light"
COPYRIGHT "Copyright (c) 2010, Kimberly Geswein (kimberlygeswein.com)"
FONT_VERSION "001.000"
FONT_ASCENT 19
FONT_DESCENT 5
UNDERLINE_POSITION 0
UNDERLINE_THICKNESS 0
X_HEIGHT 14
CAP_HEIGHT 16
RAW_ASCENT 799
RAW_DESCENT 200
NORM_SPACE 11
RELATIVE_WEIGHT 40
RELATIVE_SETWIDTH 50
SUPERSCRIPT_X 0
SUPERSCRIPT_Y 11
SUPERSCRIPT_SIZE 15
SUBSCRIPT_X 0
SUBSCRIPT_Y 3
SUBSCRIPT_SIZE 15
AVG_LOWERCASE_WIDTH 90
AVG_UPPERCASE_WIDTH 115
ENDPROPERTIES
CHARS 352
STARTCHAR space
ENCODING 32
SWIDTH 450 0
DWIDTH 11 0
BBX 1 1 0 0
BITMAP
00
ENDCHAR
STARTCHAR exclam
ENCODING 33
SWIDTH 137 0
DWIDTH 3 0
BBX 3 21 0 0
BITMAP
10
60
60
60
60
A0
A0
A0
A0
A0
A0
B0
60
00
00
00
00
00
00
04
08
ENDCHAR
STARTCHAR quotedbl
ENCODING 34
SWIDTH 212 0
DWIDTH 5 0
BBX 5 7 0 12
BITMAP
6100
7240
3240
3240
3240
3240
2000
ENDCHAR
STARTCHAR numbersign
ENCODING 35
SWIDTH 450 0
DWIDTH 11 0
BBX 10 14 1 2
BITMAP
001000
003000
183000
1C3400
0D3E00
1EB800
7E2800
0D29A0
0D2E40
0D7C00
0F5C00
BE0C00
550800
010000
ENDCHAR
STARTCHAR dollar
ENCODING 36
SWIDTH 445 0
DWIDTH 11 0
BBX 10 22 0 -3
BITMAP
001000
006000
00A000
006500
00BE00
02E000
1EA000
346000
A06000
E07000
7AFE40
057060
003030
003490
003B40
007D00
02F800
002800
001C00
000C00
000D00
000400
ENDCHAR
STARTCHAR percent
ENCODING 37
SWIDTH 450 0
DWIDTH 11 0
BBX 11 19 0 0
BITMAP
000200
000700
150A00
760D00
A15C00
A22800
AA2400
383400
007000
006040
0091F0
00D1A4
00C1A4
0181B0
0141D0
024000
020000
020000
020000
ENDCHAR
STARTCHAR ampersand
ENCODING 38
SWIDTH 356 0
DWIDTH 9 0
BBX 8 11 0 2
BITMAP
0090
0090
0080
0086
2EED
52F0
92E0
9AA0
78A0
0090
0040
ENDCHAR
STARTCHAR quotesingle
ENCODING 39
SWIDTH 155 0
DWIDTH 4 0
BBX 2 7 1 8
BITMAP
C0
D0
D0
D0
90
90
50
ENDCHAR
STARTCHAR parenleft
ENCODING 40
SWIDTH 291 0
DWIDTH 7 0
BBX 7 20 0 0
BITMAP
0014
0070
00D0
0280
0700
0A00
1C00
2800
3400
7000
6000
A000
A000
A000
6000
3000
2400
1C00
0A00
02D0
ENDCHAR
STARTCHAR parenright
ENCODING 41
SWIDTH 241 0
DWIDTH 6 0
BBX 5 18 0 0
BITMAP
6000
2800
0900
0700
0240
0180
00C0
00C0
00C0
0080
0080
00C0
01C0
0280
0340
0700
0900
0400
ENDCHAR
STARTCHAR asterisk
ENCODING 42
SWIDTH 481 0
DWIDTH 12 0
BBX 11 12 0 1
BITMAP
009000
009280
009700
78AC14
1BFBF8
02F900
7FFE00
02B2E0
0B7010
1D3000
142400
001000
ENDCHAR
STARTCHAR plus
ENCODING 43
SWIDTH 466 0
DWIDTH 11 0
BBX 11 10 0 3
BITMAP
009000
009000
009000
009014
0096F8
01F900
7EE000
00E000
00A000
006000
ENDCHAR
STARTCHAR comma
ENCODING 44
SWIDTH 112 0
DWIDTH 3 0
BBX 3 6 0 -3
BITMAP
24
74
34
34
30
10
ENDCHAR
STARTCHAR hyphen
ENCODING 45
SWIDTH 399 0
DWIDTH 10 0
BBX 9 4 0 4
BITMAP
000680
00BF80
6B9000
640000
ENDCHAR
STARTCHAR period
ENCODING 46
SWIDTH 128 0
DWIDTH 3 0
BBX 3 2 0 0
BITMAP
10
74
ENDCHAR
STARTCHAR slash
ENCODING 47
SWIDTH 306 0
DWIDTH 7 0
BBX 7 19 0 -2
BITMAP
0014
0024
0030
0060
0090
00C0
0180
0240
0340
0700
0A00
0D00
0C00
1800
2400
3000
6000
9000
8000
ENDCHAR
STARTCHAR zero
ENCODING 48
SWIDTH 308 0
DWIDTH 7 0
BBX 6 13 1 0
BITMAP
1A00
35C0
9090
8050
8060
C060
C060
C060
C050
9090
50C0
2280
1E00
ENDCHAR
STARTCHAR one
ENCODING 49
SWIDTH 112 0
DWIDTH 3 0
BBX 2 15 0 0
BITMAP
60
60
60
60
60
60
70
70
70
70
70
30
30
30
20
ENDCHAR
STARTCHAR two
ENCODING 50
SWIDTH 512 0
DWIDTH 12 0
BBX 12 14 0 0
BITMAP
00A400
07AC00
1D0D00
740900
500D00
000C00
001C00
002800
003400
006000
00D019
02C6F8
03F900
064000
ENDCHAR
STARTCHAR three
ENCODING 51
SWIDTH 461 0
DWIDTH 11 0
BBX 11 17 0 0
BITMAP
001400
06FE00
2D0A00
600900
002800
007000
01D400
07FAD0
0F8034
040028
000024
000070
0000D0
000780
001E00
00B800
009000
ENDCHAR
STARTCHAR four
ENCODING 52
SWIDTH 503 0
DWIDTH 12 0
BBX 12 19 0 0
BITMAP
000140
000380
000B80
001F80
002E80
007680
00E280
01C280
034280
0A0299
1C5BE9
7F9680
540280
000280
000280
000280
000280
000280
000240
ENDCHAR
STARTCHAR five
ENCODING 53
SWIDTH 478 0
DWIDTH 11 0
BBX 11 17 0 0
BITMAP
000014
281AA8
7FA400
7D0000
380000
340000
341900
34BB40
368280
3D0280
340240
000700
000A00
002C00
007400
00E000
008000
ENDCHAR
STARTCHAR six
ENCODING 54
SWIDTH 375 0
DWIDTH 9 0
BBX 9 20 0 0
BITMAP
010000
070000
0A0000
090000
0D0000
0C0000
180000
180000
240000
340000
300500
702F40
60A240
61C200
634200
660900
791C00
3C2400
2EA000
0B8000
ENDCHAR
STARTCHAR seven
ENCODING 55
SWIDTH 458 0
DWIDTH 11 0
BBX 10 18 0 0
BITMAP
0005A0
1AFFF0
6A50E0
0001D0
0002C0
000280
000340
000700
000600
000900
000900
000D00
000D00
000D00
000D00
000D00
000E00
000A00
ENDCHAR
STARTCHAR eight
ENCODING 56
SWIDTH 333 0
DWIDTH 8 0
BBX 7 17 0 0
BITMAP
00A0
07B8
1CFC
3448
7008
A008
6024
3030
1CA0
07C0
02C0
03A0
0614
0808
0C08
0D18
0BE0
ENDCHAR
STARTCHAR nine
ENCODING 57
SWIDTH 475 0
DWIDTH 11 0
BBX 11 16 0 0
BITMAP
007F80
02D1E0
0703E0
1D0B70
281D70
707830
A1E030
AB8030
7D0030
000034
000034
000024
000024
000024
000028
000024
ENDCHAR
STARTCHAR colon
ENCODING 58
SWIDTH 120 0
DWIDTH 3 0
BBX 2 8 0 2
BITMAP
60
10
00
00
00
00
30
10
ENDCHAR
STARTCHAR semicolon
ENCODING 59
SWIDTH 121 0
DWIDTH 3 0
BBX 3 10 0 -3
BITMAP
70
00
00
00
24
74
34
34
30
10
ENDCHAR
STARTCHAR less
ENCODING 60
SWIDTH 409 0
DWIDTH 10 0
BBX 9 12 1 3
BITMAP
000280
000B00
007C00
01E000
0B4000
2D0000
B00000
780000
1F4000
02E400
007E00
000A00
ENDCHAR
STARTCHAR equal
ENCODING 61
SWIDTH 433 0
DWIDTH 10 0
BBX 10 7 0 2
BITMAP
000140
1AFE40
2A5000
000050
001BE0
1BE500
690000
ENDCHAR
STARTCHAR greater
ENCODING 62
SWIDTH 450 0
DWIDTH 11 0
BBX 9 13 1 3
BITMAP
900000
B90000
1B8000
01B800
001F00
000340
000700
001D00
00B400
02D000
1F4000
780000
A00000
ENDCHAR
STARTCHAR question
ENCODING 63
SWIDTH 445 0
DWIDTH 11 0
BBX 11 22 0 0
BITMAP
01AF90
1F95B0
B90034
000030
0000A0
0001C0
000740
001D00
007800
01E000
028000
038000
02EA00
006400
000000
000000
000000
000000
000000
000000
005000
00A000
ENDCHAR
STARTCHAR at
ENCODING 64
SWIDTH 945 0
DWIDTH 23 0
BBX 22 22 0 0
BITMAP
000001690000
00001FAB9000
0001B4007400
000780001C00
001D00000900
007401400600
00D01ED00700
0280B5900300
070182C00300
0D0707C00300
1C0D0DC00600
281824900900
3434A0702800
7076802FE000
703E00000000
700000000000
7400000000B0
3800000002D0
2C0000001E00
0F400001E400
02E555AE4000
006BFE900000
ENDCHAR
STARTCHAR A
ENCODING 65
SWIDTH 390 0
DWIDTH 9 0
BBX 12 18 0 0
BITMAP
0A0000
0B4000
0F8000
0EC000
0D9000
1C6000
1C3000
1C2400
1C1800
281D6D
280F95
287E00
3F9B00
380300
300340
700280
7001C0
100080
ENDCHAR
STARTCHAR B
ENCODING 66
SWIDTH 537 0
DWIDTH 13 0
BBX 13 18 0 0
BITMAP
00054000
00BFD000
6790D000
3D01C000
38034000
24090000
2829A900
28BE5740
1EE00300
1F800600
0E001C00
0D007400
0901D000
09078000
060E0000
06280000
07100000
02000000
ENDCHAR
STARTCHAR C
ENCODING 67
SWIDTH 487 0
DWIDTH 12 0
BBX 11 18 0 0
BITMAP
001500
00BB40
01C180
034000
060000
090000
0C0000
180000
280000
340000
300000
70001C
600028
600074
7001D0
300740
296D00
0BE000
ENDCHAR
STARTCHAR D
ENCODING 68
SWIDTH 554 0
DWIDTH 13 0
BBX 13 18 0 0
BITMAP
05000000
0A950000
1FAAF400
7E001B00
0A000280
0A000180
06000180
06000240
07000700
07000900
07002C00
03007400
0301D000
03078000
030E0000
02780000
00A00000
00800000
ENDCHAR
STARTCHAR E
ENCODING 69
SWIDTH 474 0
DWIDTH 11 0
BBX 10 18 1 0
BITMAP
000140
D06E00
E7E000
FE0000
A00000
A00000
A00100
600A00
60B400
778000
780000
740000
7400B0
740780
742D00
75E000
7F4000
240000
ENDCHAR
STARTCHAR F
ENCODING 70
SWIDTH 428 0
DWIDTH 10 0
BBX 10 17 0 0
BITMAP
000060
700B90
71B800
7F8000
780000
740000
740000
740010
7402D0
341E00
35A400
3F4000
380000
340000
240000
240000
140000
ENDCHAR
STARTCHAR G
ENCODING 71
SWIDTH 591 0
DWIDTH 14 0
BBX 14 19 0 -3
BITMAP
0001A000
000B9000
00280000
00A00000
01C00000
03400000
06000590
0D01BFD0
18005740
24000B00
30001F00
60007F00
6001E700
74078700
2FBD0700
06900700
00000700
00000700
00000100
ENDCHAR
STARTCHAR H
ENCODING 72
SWIDTH 424 0
DWIDTH 10 0
BBX 10 16 0 0
BITMAP
600600
700340
700340
700240
300240
300280
300380
340B80
3479C0
3F81C0
3D00C0
3400C0
3400D0
3400D0
240090
240090
ENDCHAR
STARTCHAR I
ENCODING 73
SWIDTH 153 0
DWIDTH 4 0
BBX 2 18 1 0
BITMAP
90
A0
A0
60
60
60
70
70
70
70
70
70
70
70
70
70
30
20
ENDCHAR
STARTCHAR J
ENCODING 74
SWIDTH 371 0
DWIDTH 9 0
BBX 8 19 0 -2
BITMAP
0018
0018
001C
000C
000D
000D
000A
000A
000A
0007
0007
0007
0003
4003
8003
6003
2806
0A5D
0150
ENDCHAR
STARTCHAR K
ENCODING 75
SWIDTH 524 0
DWIDTH 13 0
BBX 13 16 0 0
BITMAP
70000000
3400D000
34038000
240B0000
281D0000
28380000
18A00000
1DC00000
1E800000
1F000000
0E000000
0F955500
0EAAAA40
09000000
0A000000
05000000
ENDCHAR
STARTCHAR L
ENCODING 76
SWIDTH 537 0
DWIDTH 13 0
BBX 13 15 0 0
BITMAP
74000000
74000000
74000000
34000000
34000000
38000000
38000000
38000000
38000000
38000140
38001B40
3801F400
381F4000
3EF40000
2E400000
ENDCHAR
STARTCHAR M
ENCODING 77
SWIDTH 682 0
DWIDTH 16 0
BBX 16 19 0 0
BITMAP
10000000
780000A0
3E0000E0
374001E0
25C00270
24D00330
24700630
24340930
282C0C30
180D1824
180B2424
1C03B024
1C02E028
1C008018
1D00001C
1D00001C
1D00000D
1D00000D
0D00000D
ENDCHAR
STARTCHAR N
ENCODING 78
SWIDTH 541 0
DWIDTH 13 0
BBX 12 18 0 0
BITMAP
000028
00001C
10001D
74000D
3D000D
3F000D
3B800D
28E00D
28740D
282C09
180A09
1C038D
1C01DD
0C007E
0D002E
0D000F
0D000A
090000
ENDCHAR
STARTCHAR O
ENCODING 79
SWIDTH 382 0
DWIDTH 9 0
BBX 9 16 0 0
BITMAP
01FD00
039B00
0A0340
0D0280
2C0280
2801C0
3402C0
700280
700280
A00340
A00740
A00B00
600D00
702C00
2EB400
0B8000
ENDCHAR
STARTCHAR P
ENCODING 80
SWIDTH 508 0
DWIDTH 12 0
BBX 12 19 0 0
BITMAP
096FF4
1F906D
3D000A
6D000A
1C001D
1C0074
1C01E0
1C1B40
1DB800
1F8000
1D0000
1D0000
0D0000
0D0000
0D0000
0D0000
090000
090000
090000
ENDCHAR
STARTCHAR Q
ENCODING 81
SWIDTH 512 0
DWIDTH 12 0
BBX 12 18 0 0
BITMAP
02EF80
07D5A0
0F0024
1D0018
2C0018
28000C
34000C
30000C
70000C
70070C
70034C
700298
3000F4
3400B4
2800B4
1C00F8
0B575D
01F905
ENDCHAR
STARTCHAR R
ENCODING 82
SWIDTH 503 0
DWIDTH 12 0
BBX 11 19 1 0
BITMAP
D01500
D2FFE0
EE4074
F00074
D001D0
D00B40
D07800
D69000
EE0000
F40000
F80000
EF4000
C2F400
C02F40
C002F4
C00018
C00000
C00000
800000
ENDCHAR
STARTCHAR S
ENCODING 83
SWIDTH 541 0
DWIDTH 13 0
BBX 13 18 0 0
BITMAP
00015000
001FF000
01A04000
07400000
1D000000
38000000
70000000
A0000000
A0000000
74000000
1E500000
01AFE900
00001740
00000740
00006D00
001BE000
02F90000
01400000
ENDCHAR
STARTCHAR T
ENCODING 84
SWIDTH 595 0
DWIDTH 14 0
BBX 17 17 0 0
BITMAP
000295AB40
05ABFEA400
BF96C00000
1001C00000
0001C00000
0000C00000
0000D00000
0000D00000
0000900000
0000A00000
0000A00000
0000B00000
0000700000
0000700000
0000700000
0000340000
0000240000
ENDCHAR
STARTCHAR U
ENCODING 85
SWIDTH 450 0
DWIDTH 11 0
BBX 11 18 0 -3
BITMAP
100060
740070
7400B0
7400B0
7400F0
3400F0
3401E0
3402E0
3402E0
3403A0
340760
340970
281C30
1EB430
069034
000024
000024
000010
ENDCHAR
STARTCHAR V
ENCODING 86
SWIDTH 524 0
DWIDTH 13 0
BBX 12 18 0 0
BITMAP
000001
000007
00000A
000009
A0000D
74001C
28002C
1D0028
0E0034
070074
0380B0
01C0A0
00E0E0
00B1D0
0039C0
002EC0
000F80
000740
ENDCHAR
STARTCHAR W
ENCODING 87
SWIDTH 878 0
DWIDTH 21 0
BBX 20 19 0 -1
BITMAP
0000000002
0000000007
0000000006
20000A000A
74000F400D
38001F801C
1C002A8018
0D0025C028
0A0030D034
0B0060A070
0740907060
0380C034A0
02C1801CD0
02C2400EC0
01D30007C0
00E7000380
00BE000140
003D000000
0010000000
ENDCHAR
STARTCHAR X
ENCODING 88
SWIDTH 461 0
DWIDTH 11 0
BBX 11 17 0 0
BITMAP
000014
140030
280090
0D01C0
0A0240
074700
028D00
01E800
00B400
00B400
01F800
029D00
070A00
1D0340
280280
7000D0
0000A0
ENDCHAR
STARTCHAR Y
ENCODING 89
SWIDTH 483 0
DWIDTH 12 0
BBX 11 19 0 0
BITMAP
000004
00000C
000018
000024
A00034
340070
1D00A0
0B00D0
0381C0
00E280
007F40
001F00
000E00
001D00
001C00
002800
003400
007000
006000
ENDCHAR
STARTCHAR Z
ENCODING 90
SWIDTH 670 0
DWIDTH 16 0
BBX 16 17 0 0
BITMAP
15555540
2AAABFD0
00000780
00000F00
00002D00
00007400
0001E000
00038000
000B0000
002D0000
00740000
01E00000
03800000
0B000000
2D000000
7EAAAAFD
7FAAAAA4
ENDCHAR
STARTCHAR bracketleft
ENCODING 91
SWIDTH 470 0
DWIDTH 11 0
BBX 11 30 0 -3
BITMAP
15AA90
7A9500
700000
700000
700000
300000
300000
340000
240000
240000
240000
280000
180000
180000
1C0000
1C0000
0C0000
0C0000
0D0000
0D0000
090000
090000
090000
090000
090000
0A0000
0A0014
0B5AE4
0BE900
010000
ENDCHAR
STARTCHAR backslash
ENCODING 92
SWIDTH 554 0
DWIDTH 13 0
BBX 13 24 0 0
BITMAP
B0000000
34000000
1C000000
09000000
06000000
03400000
01800000
00D00000
00600000
00340000
00280000
000D0000
000A0000
00074000
00028000
0001D000
0000E000
00007400
00003800
00001C00
00000E00
00000B00
00000380
000002C0
ENDCHAR
STARTCHAR bracketright
ENCODING 93
SWIDTH 512 0
DWIDTH 12 0
BBX 12 32 0 -3
BITMAP
000050
6BFFF8
A95038
000038
000038
000034
000034
000034
000034
000034
000038
000028
000028
000028
000028
000028
000028
000018
00001C
00001C
00001C
00001C
00001C
00001C
00000D
00000D
00000D
00000D
00000E
00006E
002FF9
001500
ENDCHAR
STARTCHAR asciicircum
ENCODING 94
SWIDTH 390 0
DWIDTH 9 0
BBX 9 7 0 16
BITMAP
004000
02D000
037400
0A1C00
1C0A00
2402C0
600040
ENDCHAR
STARTCHAR underscore
ENCODING 95
SWIDTH 612 0
DWIDTH 15 0
BBX 14 5 0 0
BITMAP
00000010
00001AF0
001BFE90
1BFE5000
7A400000
ENDCHAR
STARTCHAR grave
ENCODING 96
SWIDTH 155 0
DWIDTH 4 0
BBX 3 4 0 14
BITMAP
50
70
38
08
ENDCHAR
STARTCHAR a
ENCODING 97
SWIDTH 366 0
DWIDTH 9 0
BBX 9 13 0 0
BITMAP
007C00
01FD00
038D00
0B0D00
1D1D00
2C2E00
347A00
70E600
A1C700
D38300
DB0300
BD0340
200100
ENDCHAR
STARTCHAR b
ENCODING 98
SWIDTH 442 0
DWIDTH 11 0
BBX 9 20 1 0
BITMAP
E00000
E00000
A00000
A00000
E00000
D00000
D00000
D01400
D1FF00
D79740
ED0280
F80180
E00280
D00380
C00B00
C01E00
C0B800
C7D000
EE0000
E40000
ENDCHAR
STARTCHAR c
ENCODING 99
SWIDTH 390 0
DWIDTH 9 0
BBX 9 14 0 0
BITMAP
07D000
0EA000
1C7000
283000
340000
340000
700000
700000
600140
600280
300340
340B00
1D6D00
0BE000
ENDCHAR
STARTCHAR d
ENCODING 100
SWIDTH 316 0
DWIDTH 8 0
BBX 7 23 0 -2
BITMAP
0028
0028
0028
0028
0028
0018
0018
0018
0168
0BF8
2D28
3828
7428
7028
A028
9038
9078
90A8
9198
BB18
2818
0018
0008
ENDCHAR
STARTCHAR e
ENCODING 101
SWIDTH 461 0
DWIDTH 11 0
BBX 11 13 0 0
BITMAP
006800
02EF00
074380
0E0B40
1D7800
2F9000
7D0000
F80034
2400B0
2402D0
240740
1D6D00
0BE000
ENDCHAR
STARTCHAR f
ENCODING 102
SWIDTH 345 0
DWIDTH 8 0
BBX 8 22 0 0
BITMAP
0040
02F0
03A8
0748
0700
0B00
0A00
0A00
0A00
0A01
0A2E
0BF8
2E40
6A00
0A00
0600
0700
0700
0700
0700
0700
0300
ENDCHAR
STARTCHAR g
ENCODING 103
SWIDTH 437 0
DWIDTH 11 0
BBX 10 23 0 -10
BITMAP
006F80
01E7C0
0347C0
0A0AC0
1C1DC0
2829D0
3435D0
70A1D0
A1D1D0
A380E0
7F00E0
1800E0
0000E0
0000E0
0000E0
0000D0
0001C0
0001C0
000280
000700
000E00
007C00
0BE000
ENDCHAR
STARTCHAR h
ENCODING 104
SWIDTH 466 0
DWIDTH 11 0
BBX 11 18 0 0
BITMAP
200000
700000
700000
700000
700000
700000
700690
702FB4
74B834
74F034
76D034
778034
774038
7E0028
7D0028
7C0028
740028
200028
ENDCHAR
STARTCHAR i
ENCODING 105
SWIDTH 132 0
DWIDTH 3 0
BBX 3 18 0 0
BITMAP
50
50
00
00
20
34
34
74
70
70
70
70
30
30
30
30
30
30
ENDCHAR
STARTCHAR j
ENCODING 106
SWIDTH 112 0
DWIDTH 3 0
BBX 7 27 -4 -8
BITMAP
0020
0000
0000
0000
0000
0000
0010
0070
0070
0070
0070
0070
0070
0070
0030
0034
0034
0034
0034
0024
0024
0028
0024
4034
D070
74E0
0BC0
ENDCHAR
STARTCHAR k
ENCODING 107
SWIDTH 428 0
DWIDTH 10 0
BBX 10 19 0 -1
BITMAP
280000
280000
280000
380000
3800A0
3802D0
340780
340B40
342E00
347C00
34F000
36D000
7F4000
7D0000
7E4000
76F900
701BD0
600190
500000
ENDCHAR
STARTCHAR l
ENCODING 108
SWIDTH 137 0
DWIDTH 3 0
BBX 3 21 0 0
BITMAP
10
60
70
30
30
30
30
34
24
24
24
24
24
24
24
28
28
28
28
38
14
ENDCHAR
STARTCHAR m
ENCODING 109
SWIDTH 579 0
DWIDTH 14 0
BBX 13 15 0 0
BITMAP
10000000
70000000
34000000
34502E00
35F43F00
36F8BB00
37A8D740
275DC340
2B0E8340
2A0F4340
2E0B0340
2D070340
2C000280
2C0001C0
18000000
ENDCHAR
STARTCHAR n
ENCODING 110
SWIDTH 483 0
DWIDTH 12 0
BBX 11 14 0 0
BITMAP
600780
701FE0
707870
34B030
34E034
35D034
39C038
3A8028
2B4028
2F0028
2E0028
2E0028
1D0018
1C0004
ENDCHAR
STARTCHAR o
ENCODING 111
SWIDTH 266 0
DWIDTH 6 0
BBX 6 13 0 0
BITMAP
1F40
2EC0
3460
3060
7070
6070
A070
A070
A0A0
60D0
71C0
7B40
2D00
ENDCHAR
STARTCHAR p
ENCODING 112
SWIDTH 482 0
DWIDTH 12 0
BBX 11 20 0 -7
BITMAP
100000
701BE4
71A41C
77401C
7D0038
7400B0
7002D0
301B00
307800
36E000
3F4000
380000
300000
300000
300000
300000
300000
700000
700000
100000
ENDCHAR
STARTCHAR q
ENCODING 113
SWIDTH 408 0
DWIDTH 10 0
BBX 10 18 0 -7
BITMAP
00BE00
02D700
070700
0D0740
280B40
340E80
701A80
603980
60B1C0
3F80C0
0000D0
0000D0
000090
0000A0
0000A0
000070
000070
000020
ENDCHAR
STARTCHAR r
ENCODING 114
SWIDTH 396 0
DWIDTH 10 0
BBX 9 12 0 0
BITMAP
607FC0
70F500
31C000
368000
274000
274000
1B4000
1B4000
1F0000
0F0000
0F0000
0A0000
ENDCHAR
STARTCHAR s
ENCODING 115
SWIDTH 366 0
DWIDTH 9 0
BBX 9 13 0 -1
BITMAP
01BC00
0B4400
1C0000
340000
700000
601900
7AFF40
190240
000700
001D00
00B400
07D000
050000
ENDCHAR
STARTCHAR t
ENCODING 116
SWIDTH 268 0
DWIDTH 6 0
BBX 8 19 -1 -1
BITMAP
0700
0600
0600
0A00
0A05
0BBD
1FE0
BE00
5A00
0A00
0A00
0A00
0700
0700
0700
0700
0700
0700
0100
ENDCHAR
STARTCHAR u
ENCODING 117
SWIDTH 387 0
DWIDTH 9 0
BBX 9 13 0 -1
BITMAP
200500
700A00
300A00
300A00
300A00
340A00
340E00
341E00
342F00
287B00
1DE300
0F8340
000140
ENDCHAR
STARTCHAR v
ENCODING 118
SWIDTH 354 0
DWIDTH 9 0
BBX 8 13 0 0
BITMAP
000A
000A
000B
A00B
740A
2C0A
0E0A
0B0E
038E
01DD
00BD
003D
001D
ENDCHAR
STARTCHAR w
ENCODING 119
SWIDTH 566 0
DWIDTH 14 0
BBX 13 13 0 0
BITMAP
00040000
602C0240
342E0240
283B4240
1C368240
0D34D240
0A747280
07B42A80
03F01F80
01F00B80
00F00380
00B00140
00600000
ENDCHAR
STARTCHAR x
ENCODING 120
SWIDTH 454 0
DWIDTH 11 0
BBX 11 17 0 -2
BITMAP
001400
001C00
002C00
002C00
B42800
382400
1E3400
07B000
01F400
00BC00
00EF00
01C2C0
02C0B0
028024
034000
074000
020000
ENDCHAR
STARTCHAR y
ENCODING 121
SWIDTH 363 0
DWIDTH 9 0
BBX 9 22 0 -9
BITMAP
000100
000340
600340
740340
2C0340
0E0340
074300
028700
00E700
007B00
003F00
001F00
000B00
000600
000600
000A00
000A00
000A00
000900
000D00
000D00
000D00
ENDCHAR
STARTCHAR z
ENCODING 122
SWIDTH 618 0
DWIDTH 15 0
BBX 16 12 0 0
BITMAP
0006D000
01BED000
6F92C000
24038000
000B4000
000E0000
001C0000
00340000
00700004
00A01AFD
00EBFE94
01FA5000
ENDCHAR
STARTCHAR braceleft
ENCODING 123
SWIDTH 348 0
DWIDTH 8 0
BBX 8 23 0 -2
BITMAP
0054
02EA
0B01
0D00
1C00
0D00
0A00
0340
0280
7E40
2800
0900
0700
7F00
B400
A000
9000
9000
A000
7400
2D00
0F90
02B4
ENDCHAR
STARTCHAR bar
ENCODING 124
SWIDTH 137 0
DWIDTH 3 0
BBX 3 21 0 0
BITMAP
10
60
70
30
30
30
30
34
24
24
24
24
24
24
24
28
28
28
28
38
14
ENDCHAR
STARTCHAR braceright
ENCODING 125
SWIDTH 348 0
DWIDTH 8 0
BBX 8 23 0 -3
BITMAP
6E40
C2D0
00A0
0070
0070
00A0
00C0
0280
02D4
007C
0034
0090
01D4
00BD
001D
0009
0009
0009
000C
0028
01B4
0BD0
1900
ENDCHAR
STARTCHAR asciitilde
ENCODING 126
SWIDTH 458 0
DWIDTH 11 0
BBX 9 4 1 13
BITMAP
7F4180
E2C780
C0EE00
006800
ENDCHAR
STARTCHAR nonbreakingspace
ENCODING 160
SWIDTH 450 0
DWIDTH 11 0
BBX 1 1 0 0
BITMAP
00
ENDCHAR
STARTCHAR exclamdown
ENCODING 161
SWIDTH 137 0
DWIDTH 3 0
BBX 3 16 0 -4
BITMAP
08
00
00
00
00
00
20
70
60
60
60
60
60
60
20
10
ENDCHAR
STARTCHAR cent
ENCODING 162
SWIDTH 394 0
DWIDTH 9 0
BBX 9 19 0 -2
BITMAP
018000
018000
01C000
07E000
0EF800
1CDD00
288000
348000
308000
709000
709000
609140
609240
305340
349B00
1DAD00
0BE000
00A000
005000
ENDCHAR
STARTCHAR sterling
ENCODING 163
SWIDTH 539 0
DWIDTH 13 0
BBX 13 17 0 -1
BITMAP
0001B800
000E5900
00380100
00A00000
00C00000
01850000
6BF90000
6B400000
03000000
07000000
07000000
06000000
0A000000
0A06A400
067E6F40
07900500
01000000
ENDCHAR
STARTCHAR currency
ENCODING 164
SWIDTH 500 0
DWIDTH 12 0
BBX 9 14 1 2
BITMAP
000180
0402C0
1D6780
0FFF00
0B4E00
090A00
0D0600
0D0600
090A00
0A0E00
1F7D00
7AFE00
B04700
D00100
ENDCHAR
STARTCHAR yen
ENCODING 165
SWIDTH 478 0
DWIDTH 11 0
BBX 9 20 1 0
BITMAP
000040
2402C0
2C0780
1E0B00
0B1E00
07AC00
03F400
02F000
00E000
00A000
00A140
1AFFC0
2AE500
00A000
6AFF40
55E000
00A000
00D000
00D000
009000
ENDCHAR
STARTCHAR brokenbar
ENCODING 166
SWIDTH 137 0
DWIDTH 3 0
BBX 3 21 0 0
BITMAP
10
60
70
30
30
30
30
24
10
00
24
24
24
28
28
28
28
28
28
38
14
ENDCHAR
STARTCHAR section
ENCODING 167
SWIDTH 366 0
DWIDTH 9 0
BBX 9 19 0 -1
BITMAP
01A800
0B5400
1C0000
340000
700000
A01400
7AFF00
3F4740
1C0700
341D00
707400
71E900
7FFF40
190240
000700
001D00
00B400
07D000
050000
ENDCHAR
STARTCHAR dieresis
ENCODING 168
SWIDTH 306 0
DWIDTH 7 0
BBX 6 2 1 16
BITMAP
71D0
6080
ENDCHAR
STARTCHAR copyright
ENCODING 169
SWIDTH 485 0
DWIDTH 12 0
BBX 12 16 0 0
BITMAP
006F80
01E5A0
078034
0A142C
1CAE1C
29C61D
35801D
32801D
62806C
6280F8
A1C6F4
A0BEB0
6001D0
740740
2EBD00
0BE000
ENDCHAR
STARTCHAR ordfeminine
ENCODING 170
SWIDTH 227 0
DWIDTH 5 0
BBX 5 6 0 3
BITMAP
0A40
2640
6380
8980
9880
A040
ENDCHAR
STARTCHAR guillemotleft
ENCODING 171
SWIDTH 652 0
DWIDTH 16 0
BBX 13 13 1 3
BITMAP
00000040
000282C0
000B0B40
007C3D00
01E1E000
0B478000
2D2D0000
B0740000
782E0000
1F47D000
02E4B900
007E1F80
000A0100
ENDCHAR
STARTCHAR logicalnot
ENCODING 172
SWIDTH 539 0
DWIDTH 13 0
BBX 11 7 1 3
BITMAP
015564
7FEAA8
000018
00001C
00001C
00001C
000008
ENDCHAR
STARTCHAR uni00AD
ENCODING 173
SWIDTH 399 0
DWIDTH 10 0
BBX 9 4 0 4
BITMAP
000680
00BF80
6B9000
640000
ENDCHAR
STARTCHAR registered
ENCODING 174
SWIDTH 382 0
DWIDTH 9 0
BBX 12 16 0 0
BITMAP
006E40
01FFD0
0640B0
090034
1E9A58
2AD0DC
36864D
32AD0D
72E01D
62A91C
A247A8
A240B4
6000B0
7402C0
2E6F00
0BE400
ENDCHAR
STARTCHAR macron
ENCODING 175
SWIDTH 399 0
DWIDTH 10 0
BBX 9 2 0 16
BITMAP
056A80
BEA940
ENDCHAR
STARTCHAR degree
ENCODING 176
SWIDTH 201 0
DWIDTH 5 0
BBX 5 4 0 9
BITMAP
2E00
6240
6240
2900
ENDCHAR
STARTCHAR plusminus
ENCODING 177
SWIDTH 466 0
DWIDTH 11 0
BBX 9 12 0 1
BITMAP
009000
009000
009000
009000
009A80
01F900
7EE000
00E000
00A000
00A680
1BFA80
140000
ENDCHAR
STARTCHAR twosuperior
ENCODING 178
SWIDTH 318 0
DWIDTH 8 0
BBX 7 8 0 3
BITMAP
0600
2540
4140
0140
0200
0600
0964
1900
ENDCHAR
STARTCHAR threesuperior
ENCODING 179
SWIDTH 280 0
DWIDTH 7 0
BBX 7 10 0 4
BITMAP
0100
2A40
4140
0600
1E90
2414
0020
0060
0280
0500
ENDCHAR
STARTCHAR acute
ENCODING 180
SWIDTH 155 0
DWIDTH 4 0
BBX 4 4 0 14
BITMAP
04
1D
78
60
ENDCHAR
STARTCHAR mu
ENCODING 181
SWIDTH 387 0
DWIDTH 9 0
BBX 9 16 0 -3
BITMAP
200600
700A00
700B00
700B00
700B00
740B00
740F00
741F00
743F00
78BB00
7ED740
6A4000
600000
600000
600000
600000
ENDCHAR
STARTCHAR paragraph
ENCODING 182
SWIDTH 447 0
DWIDTH 11 0
BBX 10 16 0 0
BITMAP
000540
0BFFD0
2FFED0
7FFC90
7FFD90
7FDD90
150D90
000D90
000D90
000DA0
000AA0
000AA0
000A60
000A60
000A60
000510
ENDCHAR
STARTCHAR periodcentered
ENCODING 183
SWIDTH 128 0
DWIDTH 3 0
BBX 2 2 0 5
BITMAP
60
60
ENDCHAR
STARTCHAR cedilla
ENCODING 184
SWIDTH 322 0
DWIDTH 8 0
BBX 6 9 1 -8
BITMAP
6000
6000
7400
7E00
1BD0
00E0
06F0
7F90
1000
ENDCHAR
STARTCHAR onesuperior
ENCODING 185
SWIDTH 112 0
DWIDTH 3 0
BBX 2 8 0 4
BITMAP
60
60
60
60
60
60
20
20
ENDCHAR
STARTCHAR ordmasculine
ENCODING 186
SWIDTH 212 0
DWIDTH 5 0
BBX 5 7 0 3
BITMAP
1900
3640
6080
9180
9180
9340
7900
ENDCHAR
STARTCHAR guillemotright
ENCODING 187
SWIDTH 625 0
DWIDTH 15 0
BBX 13 13 1 3
BITMAP
90740000
B92E4000
1B86E000
01B87D00
001F0780
00034280
00070740
001D1D00
00B4B400
02D2D000
1F5F4000
78380000
A0600000
ENDCHAR
STARTCHAR onequarter
ENCODING 188
SWIDTH 678 0
DWIDTH 16 0
BBX 15 19 0 -2
BITMAP
00090000
000C0000
00180000
00240000
10300140
60600740
60900F40
60D02A40
61C0A240
62818240
63470294
631E6B94
36250240
29000240
0C000240
18000240
24000240
30000000
20000000
ENDCHAR
STARTCHAR onehalf
ENCODING 189
SWIDTH 693 0
DWIDTH 17 0
BBX 14 19 1 -2
BITMAP
00090000
000D0000
001C0000
80280000
80340000
80300000
80600000
8096E000
90DD3000
91E03000
92403000
93006000
56009000
0A00C000
0D024190
1C03AA00
28064000
24000000
20000000
ENDCHAR
STARTCHAR threequarters
ENCODING 190
SWIDTH 868 0
DWIDTH 21 0
BBX 16 19 1 -2
BITMAP
00000180
00400240
1AD00350
A0500690
40800AD0
02400FD0
0BA41E50
2E0A2D50
10033850
00067065
0009F6E5
0075F450
01D0C050
02018050
00024050
00030050
00060050
00090000
00080000
ENDCHAR
STARTCHAR questiondown
ENCODING 191
SWIDTH 541 0
DWIDTH 13 0
BBX 11 20 2 -1
BITMAP
007000
001000
000000
000000
000000
000000
000000
005000
07BD00
000E00
001D00
007800
01E000
078000
1D0000
340000
A00000
D000A4
E01BE0
6FE900
ENDCHAR
STARTCHAR Agrave
ENCODING 192
SWIDTH 390 0
DWIDTH 9 0
BBX 11 23 1 -1
BITMAP
080000
0D0000
070000
024000
000000
1C0000
1E0000
1F0000
2B4000
298000
34C000
349000
346000
343000
7039B8
702E54
71BC00
BE5D00
B40900
A00600
900700
D00340
400240
ENDCHAR
STARTCHAR Aacute
ENCODING 193
SWIDTH 390 0
DWIDTH 9 0
BBX 12 23 0 0
BITMAP
010000
074000
0E0000
180000
000000
0A0000
0B4000
0F8000
0EC000
0D9000
1C6000
1C3000
1C2400
1C1800
281D6D
280F95
287E00
3F9B00
380300
300340
700280
7001C0
100080
ENDCHAR
STARTCHAR Acircumflex
ENCODING 194
SWIDTH 390 0
DWIDTH 9 0
BBX 13 25 -1 0
BITMAP
01000000
03C00000
0AA00000
0D280000
280D0000
30034000
90014000
02800000
02D00000
03E00000
03B00000
03640000
07180000
070C0000
07090000
07060000
0A075B40
0A03E540
0A1F8000
0FE6C000
0E00C000
0C00D000
1C00A000
1C007000
04002000
ENDCHAR
STARTCHAR Atilde
ENCODING 195
SWIDTH 390 0
DWIDTH 9 0
BBX 13 24 -1 0
BITMAP
1FD09000
34A1E000
707B8000
00190000
00000000
00000000
02800000
02D00000
03E00000
03B00000
03640000
07180000
070C0000
07090000
07060000
0A075B40
0A03E540
0A1F8000
0FE6C000
0E00C000
0C00D000
1C00A000
1C007000
04002000
ENDCHAR
STARTCHAR Adieresis
ENCODING 196
SWIDTH 390 0
DWIDTH 9 0
BBX 12 21 0 0
BITMAP
1C7000
145000
000000
0A0000
0B4000
0F8000
0EC000
0D9000
1C6000
1C3000
1C2400
1C1800
281D6D
280F95
287E00
3F9B00
380300
300340
700280
7001C0
100080
ENDCHAR
STARTCHAR Aring
ENCODING 197
SWIDTH 390 0
DWIDTH 9 0
BBX 12 22 0 0
BITMAP
010000
7FD000
E0A000
A0E000
6F8000
0B4000
0F8000
0EC000
0D9000
1C6000
1C3000
1C2400
1C1800
281D6D
280F95
287E00
3F9B00
380300
300340
700280
7001C0
100080
ENDCHAR
STARTCHAR AE
ENCODING 198
SWIDTH 708 0
DWIDTH 17 0
BBX 17 18 0 0
BITMAP
0A00001400
0B4706E400
0F876E4000
0EC3E40000
0D93400000
1C63400000
1C32400400
1C26406000
1C1A478000
281EB80000
280FD00000
287FC00000
3F9BC00780
3803C02D00
3003C1E000
7002DB4000
7002F80000
1001500000
ENDCHAR
STARTCHAR Ccedilla
ENCODING 199
SWIDTH 487 0
DWIDTH 12 0
BBX 11 26 0 -8
BITMAP
001500
00BB40
01C180
034000
060000
090000
0C0000
180000
280000
340000
300000
70001C
600028
600074
7001D0
300740
296D00
0BE000
018000
018000
01E400
00BE00
000780
0003C0
00AF80
00A500
ENDCHAR
STARTCHAR Egrave
ENCODING 200
SWIDTH 474 0
DWIDTH 11 0
BBX 10 22 1 0
BITMAP
080000
0A0000
074000
014000
000140
D06E00
E7E000
FE0000
A00000
A00000
A00100
600A00
60B400
778000
780000
740000
7400B0
740780
742D00
75E000
7F4000
240000
ENDCHAR
STARTCHAR Eacute
ENCODING 201
SWIDTH 474 0
DWIDTH 11 0
BBX 10 22 1 0
BITMAP
001000
00B000
01D000
024000
000140
D06E00
E7E000
FE0000
A00000
A00000
A00100
600A00
60B400
778000
780000
740000
7400B0
740780
742D00
75E000
7F4000
240000
ENDCHAR
STARTCHAR Ecircumflex
ENCODING 202
SWIDTH 474 0
DWIDTH 11 0
BBX 10 26 1 0
BITMAP
004000
01D000
037400
0A1D00
0C0700
2802C0
300040
000000
000140
D06E00
E7E000
FE0000
A00000
A00000
A00100
600A00
60B400
778000
780000
740000
7400B0
740780
742D00
75E000
7F4000
240000
ENDCHAR
STARTCHAR Edieresis
ENCODING 203
SWIDTH 474 0
DWIDTH 11 0
BBX 10 21 1 0
BITMAP
092800
092400
000000
000140
D06E00
E7E000
FE0000
A00000
A00000
A00100
600A00
60B400
778000
780000
740000
7400B0
740780
742D00
75E000
7F4000
240000
ENDCHAR
STARTCHAR Igrave
ENCODING 204
SWIDTH 153 0
DWIDTH 4 0
BBX 3 23 0 0
BITMAP
50
70
38
08
00
24
28
28
18
18
18
1C
1C
1C
1C
1C
1C
1C
1C
1C
1C
0C
08
ENDCHAR
STARTCHAR Iacute
ENCODING 205
SWIDTH 153 0
DWIDTH 4 0
BBX 3 23 1 0
BITMAP
04
38
B0
80
00
90
A0
A0
60
60
60
70
70
70
70
70
70
70
70
70
70
30
20
ENDCHAR
STARTCHAR Icircumflex
ENCODING 206
SWIDTH 153 0
DWIDTH 4 0
BBX 9 25 -2 0
BITMAP
010000
038000
0AA000
1C2800
240D00
700740
900100
024000
028000
028000
018000
018000
018000
01C000
01C000
01C000
01C000
01C000
01C000
01C000
01C000
01C000
01C000
00C000
008000
ENDCHAR
STARTCHAR Idieresis
ENCODING 207
SWIDTH 153 0
DWIDTH 4 0
BBX 5 21 0 0
BITMAP
D240
8200
0000
2400
2800
2800
1800
1800
1800
1C00
1C00
1C00
1C00
1C00
1C00
1C00
1C00
1C00
1C00
0C00
0800
ENDCHAR
STARTCHAR Eth
ENCODING 208
SWIDTH 554 0
DWIDTH 13 0
BBX 13 18 0 0
BITMAP
05000000
0A950000
1FAAF400
7E001B00
0A000280
0A000180
06000180
06000240
06000700
07000900
07002C00
03547400
6FF9D000
17478000
030E0000
02780000
00A00000
00800000
ENDCHAR
STARTCHAR Ntilde
ENCODING 209
SWIDTH 541 0
DWIDTH 13 0
BBX 12 22 0 0
BITMAP
0BE060
2870E0
342FC0
000A00
000028
00001C
10001D
74000D
3D000D
3F000D
3B800D
28E00D
28740D
282C09
180A09
1C038D
1C01DD
0C007E
0D002E
0D000F
0D000A
090000
ENDCHAR
STARTCHAR Ograve
ENCODING 210
SWIDTH 382 0
DWIDTH 9 0
BBX 9 21 0 0
BITMAP
002000
002800
001D00
000500
000000
01FD00
039B00
0A0340
0D0280
2C0280
2801C0
3402C0
700280
700280
A00340
A00740
A00B00
600D00
702C00
2EB400
0B8000
ENDCHAR
STARTCHAR Oacute
ENCODING 211
SWIDTH 382 0
DWIDTH 9 0
BBX 9 21 0 0
BITMAP
001000
00A000
02D000
024000
000000
01FD00
039B00
0A0340
0D0280
2C0280
2801C0
3402C0
700280
700280
A00340
A00740
A00B00
600D00
702C00
2EB400
0B8000
ENDCHAR
STARTCHAR Ocircumflex
ENCODING 212
SWIDTH 382 0
DWIDTH 9 0
BBX 9 23 0 0
BITMAP
004000
02C000
077000
0D2800
180A00
340380
600140
01FD00
039B00
0A0340
0D0280
2C0280
2801C0
3402C0
700280
700280
A00340
A00740
A00B00
600D00
702C00
2EB400
0B8000
ENDCHAR
STARTCHAR Otilde
ENCODING 213
SWIDTH 382 0
DWIDTH 9 0
BBX 10 21 0 0
BITMAP
0BE060
2C74F0
242ED0
000A00
000000
01FD00
039B00
0A0340
0D0280
2C0280
2801C0
3402C0
700280
700280
A00340
A00740
A00B00
600D00
702C00
2EB400
0B8000
ENDCHAR
STARTCHAR Odieresis
ENCODING 214
SWIDTH 382 0
DWIDTH 9 0
BBX 9 19 0 0
BITMAP
01C740
018200
000000
01FD00
039B00
0A0340
0D0280
2C0280
2801C0
3402C0
700280
700280
A00340
A00740
A00B00
600D00
702C00
2EB400
0B8000
ENDCHAR
STARTCHAR multiply
ENCODING 215
SWIDTH 454 0
DWIDTH 11 0
BBX 7 9 2 3
BITMAP
4000
D024
70A0
2AC0
0F40
1F00
7580
D0D0
4060
ENDCHAR
STARTCHAR Oslash
ENCODING 216
SWIDTH 382 0
DWIDTH 9 0
BBX 9 19 0 -2
BITMAP
000600
01FE00
039F00
0A1F40
0D2A80
2C3680
2831C0
3462C0
709280
70C280
A18340
A24740
A30B00
660D00
792C00
2EB400
1F8000
280000
240000
ENDCHAR
STARTCHAR Ugrave
ENCODING 217
SWIDTH 450 0
DWIDTH 11 0
BBX 11 22 0 -3
BITMAP
004000
01D000
00B000
002000
100060
740070
7400B0
7400B0
7400F0
3400F0
3401E0
3402E0
3402E0
3403A0
340760
340970
281C30
1EB430
069034
000024
000024
000010
ENDCHAR
STARTCHAR Uacute
ENCODING 218
SWIDTH 450 0
DWIDTH 11 0
BBX 11 21 0 -3
BITMAP
000400
001D00
007800
106060
740070
7400B0
7400B0
7400F0
3400F0
3401E0
3402E0
3402E0
3403A0
340760
340970
281C30
1EB430
069034
000024
000024
000010
ENDCHAR
STARTCHAR Ucircumflex
ENCODING 219
SWIDTH 450 0
DWIDTH 11 0
BBX 11 26 0 -3
BITMAP
004000
00E000
02A800
030A00
0A0340
1C01D0
240050
000000
100060
740070
7400B0
7400B0
7400F0
3400F0
3401E0
3402E0
3402E0
3403A0
340760
340970
281C30
1EB430
069034
000024
000024
000010
ENDCHAR
STARTCHAR Udieresis
ENCODING 220
SWIDTH 450 0
DWIDTH 11 0
BBX 11 21 0 -3
BITMAP
028A00
014500
000000
100060
740070
7400B0
7400B0
7400F0
3400F0
3401E0
3402E0
3402E0
3403A0
340760
340970
281C30
1EB430
069034
000024
000024
000010
ENDCHAR
STARTCHAR Yacute
ENCODING 221
SWIDTH 483 0
DWIDTH 12 0
BBX 11 23 0 0
BITMAP
000100
000B00
001D00
002400
000004
00000C
000018
000024
A00034
340070
1D00A0
0B00D0
0381C0
00E280
007F40
001F00
000E00
001D00
001C00
002800
003400
007000
006000
ENDCHAR
STARTCHAR Thorn
ENCODING 222
SWIDTH 398 0
DWIDTH 10 0
BBX 9 20 0 0
BITMAP
140000
280000
340000
340000
345900
35FF40
3B42C0
3D01C0
3801C0
7401C0
700380
700B00
702800
76E000
7E4000
740000
700000
700000
340000
100000
ENDCHAR
STARTCHAR germandbls
ENCODING 223
SWIDTH 537 0
DWIDTH 13 0
BBX 13 18 0 0
BITMAP
00054000
00BFD000
6790D000
3D01C000
38034000
24090000
2829A900
28BE5740
1EE00300
1F800600
0E001C00
0D007400
0901D000
09078000
060E0000
06280000
07100000
02000000
ENDCHAR
STARTCHAR agrave
ENCODING 224
SWIDTH 366 0
DWIDTH 9 0
BBX 9 18 0 0
BITMAP
010000
074000
02C000
008000
000000
007C00
01FD00
038D00
0B0D00
1D1D00
2C2E00
347A00
70E600
A1C700
D38300
DB0300
BD0340
200100
ENDCHAR
STARTCHAR aacute
ENCODING 225
SWIDTH 366 0
DWIDTH 9 0
BBX 9 18 0 0
BITMAP
001000
007400
01E000
018000
000000
007C00
01FD00
038D00
0B0D00
1D1D00
2C2E00
347A00
70E600
A1C700
D38300
DB0300
BD0340
200100
ENDCHAR
STARTCHAR acircumflex
ENCODING 226
SWIDTH 366 0
DWIDTH 9 0
BBX 9 23 0 0
BITMAP
010000
03C000
0AA000
0C2800
280D00
300740
900140
000000
000000
000000
007C00
01FD00
038D00
0B0D00
1D1D00
2C2E00
347A00
70E600
A1C700
D38300
DB0300
BD0340
200100
ENDCHAR
STARTCHAR atilde
ENCODING 227
SWIDTH 366 0
DWIDTH 9 0
BBX 10 18 0 0
BITMAP
1FD090
74E1D0
607B80
001900
000000
007C00
01FD00
038D00
0B0D00
1D1D00
2C2E00
347A00
70E600
A1C700
D38300
DB0300
BD0340
200100
ENDCHAR
STARTCHAR adieresis
ENCODING 228
SWIDTH 366 0
DWIDTH 9 0
BBX 9 18 0 0
BITMAP
0A2800
051400
000000
000000
000000
007C00
01FD00
038D00
0B0D00
1D1D00
2C2E00
347A00
70E600
A1C700
D38300
DB0300
BD0340
200100
ENDCHAR
STARTCHAR aring
ENCODING 229
SWIDTH 366 0
DWIDTH 9 0
BBX 9 17 0 0
BITMAP
005000
07FD00
0E0A00
0A0E00
06FD00
01FD00
038D00
0B0D00
1D1D00
2C2E00
347A00
70E600
A1C700
D38300
DB0300
BD0340
200100
ENDCHAR
STARTCHAR ae
ENCODING 230
SWIDTH 705 0
DWIDTH 17 0
BBX 17 14 0 0
BITMAP
0000054000
007C2FE000
01FD787400
038DE0B400
0B0ED69000
1D1FFD0000
2C2FE00000
347F800340
70E7400B00
A1C7401D00
D383407400
DB0381D000
BD03FE4000
2001100000
ENDCHAR
STARTCHAR ccedilla
ENCODING 231
SWIDTH 390 0
DWIDTH 9 0
BBX 9 22 0 -8
BITMAP
07D000
0EA000
1C7000
283000
340000
340000
700000
700000
600140
600280
300340
340B00
1D6D00
0BE000
060000
070000
07E000
01BD00
001F00
001F00
07F900
014000
ENDCHAR
STARTCHAR egrave
ENCODING 232
SWIDTH 461 0
DWIDTH 11 0
BBX 11 18 0 0
BITMAP
008000
00D000
007000
002400
000000
006800
02EF00
074380
0E0B40
1D7800
2F9000
7D0000
F80034
2400B0
2402D0
240740
1D6D00
0BE000
ENDCHAR
STARTCHAR eacute
ENCODING 233
SWIDTH 461 0
DWIDTH 11 0
BBX 11 17 0 0
BITMAP
001D00
003800
006000
000000
006800
02EF00
074380
0E0B40
1D7800
2F9000
7D0000
F80034
2400B0
2402D0
240740
1D6D00
0BE000
ENDCHAR
STARTCHAR ecircumflex
ENCODING 234
SWIDTH 461 0
DWIDTH 11 0
BBX 11 22 0 0
BITMAP
00F000
01A800
034A00
060280
0C00E0
180050
000000
000000
000000
006800
02EF00
074380
0E0B40
1D7800
2F9000
7D0000
F80034
2400B0
2402D0
240740
1D6D00
0BE000
ENDCHAR
STARTCHAR edieresis
ENCODING 235
SWIDTH 461 0
DWIDTH 11 0
BBX 11 18 0 0
BITMAP
028700
014500
000000
000000
000000
006800
02EF00
074380
0E0B40
1D7800
2F9000
7D0000
F80034
2400B0
2402D0
240740
1D6D00
0BE000
ENDCHAR
STARTCHAR igrave
ENCODING 236
SWIDTH 132 0
DWIDTH 3 0
BBX 3 20 0 0
BITMAP
40
D0
B0
24
00
00
20
34
34
74
70
70
70
70
30
30
30
30
30
30
ENDCHAR
STARTCHAR iacute
ENCODING 237
SWIDTH 132 0
DWIDTH 3 0
BBX 4 20 0 0
BITMAP
09
2C
70
00
00
00
20
34
34
74
70
70
70
70
30
30
30
30
30
30
ENDCHAR
STARTCHAR icircumflex
ENCODING 238
SWIDTH 132 0
DWIDTH 3 0
BBX 9 23 -3 0
BITMAP
004000
03C000
077000
0D2800
180A00
340380
600140
000000
000000
008000
00D000
00D000
01D000
01C000
01C000
01C000
01C000
00C000
00C000
00C000
00C000
00C000
00C000
ENDCHAR
STARTCHAR idieresis
ENCODING 239
SWIDTH 132 0
DWIDTH 3 0
BBX 5 18 -1 0
BITMAP
A1C0
5140
0000
0000
0800
0D00
0D00
1D00
1C00
1C00
1C00
1C00
0C00
0C00
0C00
0C00
0C00
0C00
ENDCHAR
STARTCHAR eth
ENCODING 240
SWIDTH 481 0
DWIDTH 12 0
BBX 11 15 1 0
BITMAP
014000
01C000
00A000
007000
05BAF4
0BAD00
000D00
050600
2F9700
79F700
702F00
600E00
301D00
297800
0BD000
ENDCHAR
STARTCHAR ntilde
ENCODING 241
SWIDTH 483 0
DWIDTH 12 0
BBX 11 20 0 0
BITMAP
07F424
0D2874
1C1EE0
000640
000000
000000
600780
701FE0
707870
34B030
34E034
35D034
39C038
3A8028
2B4028
2F0028
2E0028
2E0028
1D0018
1C0004
ENDCHAR
STARTCHAR ograve
ENCODING 242
SWIDTH 266 0
DWIDTH 6 0
BBX 6 18 0 0
BITMAP
1400
1D00
0A00
0200
0000
1F40
2EC0
3460
3060
7070
6070
A070
A070
A0A0
60D0
71C0
7B40
2D00
ENDCHAR
STARTCHAR oacute
ENCODING 243
SWIDTH 266 0
DWIDTH 6 0
BBX 6 18 0 0
BITMAP
0040
01C0
0740
0900
0000
1F40
2EC0
3460
3060
7070
6070
A070
A070
A0A0
60D0
71C0
7B40
2D00
ENDCHAR
STARTCHAR ocircumflex
ENCODING 244
SWIDTH 266 0
DWIDTH 6 0
BBX 9 23 -1 0
BITMAP
010000
078000
0AA000
1C3400
241D00
600740
900100
000000
000000
000000
07D000
0BB000
0D1800
0C1800
1C1C00
181C00
281C00
281C00
282800
183400
1C7000
1ED000
0B4000
ENDCHAR
STARTCHAR otilde
ENCODING 245
SWIDTH 266 0
DWIDTH 6 0
BBX 10 18 -1 0
BITMAP
2F8090
71D2C0
A0BB40
002900
000000
07D000
0BB000
0D1800
0C1800
1C1C00
181C00
281C00
281C00
282800
183400
1C7000
1ED000
0B4000
ENDCHAR
STARTCHAR odieresis
ENCODING 246
SWIDTH 266 0
DWIDTH 6 0
BBX 6 18 0 0
BITMAP
28A0
2490
0000
0000
0000
1F40
2EC0
3460
3060
7070
6070
A070
A070
A0A0
60D0
71C0
7B40
2D00
ENDCHAR
STARTCHAR divide
ENCODING 247
SWIDTH 345 0
DWIDTH 8 0
BBX 8 7 0 3
BITMAP
0240
0000
15A9
6AA5
0000
0000
0180
ENDCHAR
STARTCHAR oslash
ENCODING 248
SWIDTH 266 0
DWIDTH 6 0
BBX 7 16 0 -2
BITMAP
0024
1FB0
2EE0
34E0
31E0
72B0
6370
A670
A970
ACA0
78D0
75C0
7B40
7D00
D000
8000
ENDCHAR
STARTCHAR ugrave
ENCODING 249
SWIDTH 387 0
DWIDTH 9 0
BBX 9 19 0 -1
BITMAP
020000
038000
01D000
005000
000000
000000
200500
700A00
300A00
300A00
300A00
340A00
340E00
341E00
342F00
287B00
1DE300
0F8340
000140
ENDCHAR
STARTCHAR uacute
ENCODING 250
SWIDTH 387 0
DWIDTH 9 0
BBX 9 18 0 -1
BITMAP
003400
00F000
008000
000000
000000
200500
700A00
300A00
300A00
300A00
340A00
340E00
341E00
342F00
287B00
1DE300
0F8340
000140
ENDCHAR
STARTCHAR ucircumflex
ENCODING 251
SWIDTH 387 0
DWIDTH 9 0
BBX 9 24 0 -1
BITMAP
004000
02D000
077000
091800
180A00
340280
600040
000000
000000
000000
000000
200500
700A00
300A00
300A00
300A00
340A00
340E00
341E00
342F00
287B00
1DE300
0F8340
000140
ENDCHAR
STARTCHAR udieresis
ENCODING 252
SWIDTH 387 0
DWIDTH 9 0
BBX 9 19 0 -1
BITMAP
071C00
051800
000000
000000
000000
000000
200500
700A00
300A00
300A00
300A00
340A00
340E00
341E00
342F00
287B00
1DE300
0F8340
000140
ENDCHAR
STARTCHAR yacute
ENCODING 253
SWIDTH 363 0
DWIDTH 9 0
BBX 9 27 0 -9
BITMAP
001000
007400
01E000
018000
000000
000100
000340
600340
740340
2C0340
0E0340
074300
028700
00E700
007B00
003F00
001F00
000B00
000600
000600
000A00
000A00
000A00
000900
000D00
000D00
000D00
ENDCHAR
STARTCHAR thorn
ENCODING 254
SWIDTH 439 0
DWIDTH 11 0
BBX 10 17 0 -1
BITMAP
200000
701A40
71A9A0
7B4070
7C00A0
3400C0
300340
301D00
34B400
3AD000
3F4000
380000
340000
300000
300000
300000
200000
ENDCHAR
STARTCHAR ydieresis
ENCODING 255
SWIDTH 363 0
DWIDTH 9 0
BBX 9 27 0 -9
BITMAP
0A2800
091400
000000
000000
000000
000100
000340
600340
740340
2C0340
0E0340
074300
028700
00E700
007B00
003F00
001F00
000B00
000600
000600
000A00
000A00
000A00
000900
000D00
000D00
000D00
ENDCHAR
STARTCHAR Amacron
ENCODING 256
SWIDTH 390 0
DWIDTH 9 0
BBX 12 21 0 0
BITMAP
056A80
BAA940
000000
0A0000
0B4000
0F8000
0EC000
0D9000
1C6000
1C3000
1C2400
1C1800
281D6D
280F95
287E00
3F9B00
380300
300340
700280
7001C0
100080
ENDCHAR
STARTCHAR amacron
ENCODING 257
SWIDTH 366 0
DWIDTH 9 0
BBX 9 18 0 0
BITMAP
056A80
BEA940
000000
000000
000000
007C00
01FD00
038D00
0B0D00
1D1D00
2C2E00
347A00
70E600
A1C700
D38300
DB0300
BD0340
200100
ENDCHAR
STARTCHAR Abreve
ENCODING 258
SWIDTH 390 0
DWIDTH 9 0
BBX 12 23 0 0
BITMAP
100800
282C00
0BF400
019000
000000
0A0000
0B4000
0F8000
0EC000
0D9000
1C6000
1C3000
1C2400
1C1800
281D6D
280F95
287E00
3F9B00
380300
300340
700280
7001C0
100080
ENDCHAR
STARTCHAR abreve
ENCODING 259
SWIDTH 366 0
DWIDTH 9 0
BBX 9 18 0 0
BITMAP
040500
0D1D00
07F800
019000
000000
007C00
01FD00
038D00
0B0D00
1D1D00
2C2E00
347A00
70E600
A1C700
D38300
DB0300
BD0340
200100
ENDCHAR
STARTCHAR Aogonek
ENCODING 260
SWIDTH 390 0
DWIDTH 9 0
BBX 12 24 0 -6
BITMAP
0A0000
0B4000
0F8000
0EC000
0D9000
1C6000
1C3000
1C2400
1C1800
281D6D
280F95
287E00
3F9B00
380300
300340
700280
7001C0
1000C0
000380
000A00
000D00
000D00
000AAD
0002E4
ENDCHAR
STARTCHAR aogonek
ENCODING 261
SWIDTH 366 0
DWIDTH 9 0
BBX 11 18 0 -5
BITMAP
007C00
01FD00
038D00
0B0D00
1D1D00
2C2E00
347A00
70E600
A1C700
D38300
DB0300
BD0340
200B00
001C00
002800
003400
0029B8
000BE0
ENDCHAR
STARTCHAR Cacute
ENCODING 262
SWIDTH 487 0
DWIDTH 12 0
BBX 11 22 0 0
BITMAP
000400
001D00
003800
006000
001500
00BB40
01C180
034000
060000
090000
0C0000
180000
280000
340000
300000
70001C
600028
600074
7001D0
300740
296D00
0BE000
ENDCHAR
STARTCHAR cacute
ENCODING 263
SWIDTH 390 0
DWIDTH 9 0
BBX 9 20 0 0
BITMAP
001000
00B000
02D000
024000
000000
000000
07D000
0EA000
1C7000
283000
340000
340000
700000
700000
600140
600280
300340
340B00
1D6D00
0BE000
ENDCHAR
STARTCHAR Ccircumflex
ENCODING 264
SWIDTH 487 0
DWIDTH 12 0
BBX 11 25 0 0
BITMAP
001000
00B400
01DC00
024700
070280
0900A0
180010
001500
00BB40
01C180
034000
060000
090000
0C0000
180000
280000
340000
300000
70001C
600028
600074
7001D0
300740
296D00
0BE000
ENDCHAR
STARTCHAR ccircumflex
ENCODING 265
SWIDTH 390 0
DWIDTH 9 0
BBX 9 23 0 0
BITMAP
004000
02D000
077000
091C00
1C0A00
340280
600040
000000
000000
07D000
0EA000
1C7000
283000
340000
340000
700000
700000
600140
600280
300340
340B00
1D6D00
0BE000
ENDCHAR
STARTCHAR Cdotaccent
ENCODING 266
SWIDTH 487 0
DWIDTH 12 0
BBX 11 21 0 0
BITMAP
002400
003400
000000
001500
00BB40
01C180
034000
060000
090000
0C0000
180000
280000
340000
300000
70001C
600028
600074
7001D0
300740
296D00
0BE000
ENDCHAR
STARTCHAR cdotaccent
ENCODING 267
SWIDTH 390 0
DWIDTH 9 0
BBX 9 17 0 0
BITMAP
024000
020000
000000
07D000
0EA000
2C7000
283000
340000
300000
700000
600000
600140
600240
700740
340A00
2D6D00
0BE000
ENDCHAR
STARTCHAR Ccaron
ENCODING 268
SWIDTH 487 0
DWIDTH 12 0
BBX 11 22 0 0
BITMAP
090060
030180
01CA00
00B800
001500
00BB40
01C180
034000
060000
090000
0C0000
180000
280000
340000
300000
70001C
600028
600074
7001D0
300740
296D00
0BE000
ENDCHAR
STARTCHAR ccaron
ENCODING 269
SWIDTH 390 0
DWIDTH 9 0
BBX 9 19 0 0
BITMAP
200280
180A00
062400
02D000
004000
07D000
0EA000
1C7000
283000
340000
340000
700000
700000
600140
600280
300340
340B00
1D6D00
0BE000
ENDCHAR
STARTCHAR Dcaron
ENCODING 270
SWIDTH 554 0
DWIDTH 13 0
BBX 13 22 0 0
BITMAP
02401800
00D07400
00718000
001E0000
05000000
0A950000
1FAAF400
7E001B00
0A000280
0A000180
06000180
06000240
07000700
07000900
07002C00
03007400
0301D000
03078000
030E0000
02780000
00A00000
00800000
ENDCHAR
STARTCHAR Emacron
ENCODING 274
SWIDTH 474 0
DWIDTH 11 0
BBX 10 21 1 0
BITMAP
05AA40
FAA900
000000
000140
D06E00
E7E000
FE0000
A00000
A00000
A00100
600A00
60B400
778000
780000
740000
7400B0
740780
742D00
75E000
7F4000
240000
ENDCHAR
STARTCHAR emacron
ENCODING 275
SWIDTH 461 0
DWIDTH 11 0
BBX 11 18 0 0
BITMAP
015AA0
2FAA50
000000
000000
000000
006800
02EF00
074380
0E0B40
1D7800
2F9000
7D0000
F80034
2400B0
2402D0
240740
1D6D00
0BE000
ENDCHAR
STARTCHAR Ebreve
ENCODING 276
SWIDTH 474 0
DWIDTH 11 0
BBX 10 22 1 0
BITMAP
040500
0D0E00
07F800
009000
000140
D06E00
E7E000
FE0000
A00000
A00000
A00100
600A00
60B400
778000
780000
740000
7400B0
740780
742D00
75E000
7F4000
240000
ENDCHAR
STARTCHAR ebreve
ENCODING 277
SWIDTH 461 0
DWIDTH 11 0
BBX 11 18 0 0
BITMAP
010140
034380
01FE00
002400
000000
006800
02EF00
074380
0E0B40
1D7800
2F9000
7D0000
F80034
2400B0
2402D0
240740
1D6D00
0BE000
ENDCHAR
STARTCHAR Edotaccent
ENCODING 278
SWIDTH 474 0
DWIDTH 11 0
BBX 10 20 1 0
BITMAP
024000
024000
000140
D06E00
E7E000
FE0000
A00000
A00000
A00100
600A00
60B400
778000
780000
740000
7400B0
740780
742D00
75E000
7F4000
240000
ENDCHAR
STARTCHAR edotaccent
ENCODING 279
SWIDTH 461 0
DWIDTH 11 0
BBX 11 15 0 0
BITMAP
002400
003400
006800
02EF00
074380
0E0B40
1D7800
2F9000
7D0000
F80034
2400B0
2402D0
240740
1D6D00
0BE000
ENDCHAR
STARTCHAR Eogonek
ENCODING 280
SWIDTH 474 0
DWIDTH 11 0
BBX 10 21 1 -3
BITMAP
000140
D06E00
E7E000
FE0000
A00000
A00000
A00100
600A00
60B400
778000
780000
740000
7400B0
740780
742D00
75F000
7FD000
24D000
00D190
007FC0
000500
ENDCHAR
STARTCHAR eogonek
ENCODING 281
SWIDTH 461 0
DWIDTH 11 0
BBX 11 18 0 -5
BITMAP
006800
02EF00
074380
0E0B40
1D7800
2F9000
7D0000
F80034
2400B0
2402D0
240740
1D6D00
0BE000
02C000
028000
034000
02EB80
00B900
ENDCHAR
STARTCHAR Ecaron
ENCODING 282
SWIDTH 474 0
DWIDTH 11 0
BBX 10 22 1 0
BITMAP
600200
241D00
0D6400
078000
000140
D06E00
E7E000
FE0000
A00000
A00000
A00100
600A00
60B400
778000
780000
740000
7400B0
740780
742D00
75E000
7F4000
240000
ENDCHAR
STARTCHAR ecaron
ENCODING 283
SWIDTH 461 0
DWIDTH 11 0
BBX 11 19 0 0
BITMAP
180090
060280
028900
00F400
000000
000000
006800
02EF00
074380
0E0B40
1D7800
2F9000
7D0000
F80034
2400B0
2402D0
240740
1D6D00
0BE000
ENDCHAR
STARTCHAR Gcircumflex
ENCODING 284
SWIDTH 591 0
DWIDTH 14 0
BBX 14 26 0 -3
BITMAP
00040000
001E0000
00374000
0060D000
00D07000
02801C00
03000400
0001A000
000B9000
00280000
00A00000
01C00000
03400000
06000590
0D01BFD0
18005740
24000B00
30001F00
60007F00
6001E700
74078700
2FBD0700
06900700
00000700
00000700
00000100
ENDCHAR
STARTCHAR gcircumflex
ENCODING 285
SWIDTH 437 0
DWIDTH 11 0
BBX 10 33 0 -10
BITMAP
004000
01E000
02A800
070D00
090740
1801D0
240040
000000
000000
000000
006F80
01E7C0
0347C0
0A0AC0
1C1DC0
2829D0
3435D0
70A1D0
A1D1D0
A380E0
7F00E0
1800E0
0000E0
0000E0
0000E0
0000D0
0001C0
0001C0
000280
000700
000E00
007C00
0BE000
ENDCHAR
STARTCHAR Gbreve
ENCODING 286
SWIDTH 591 0
DWIDTH 14 0
BBX 14 23 0 -3
BITMAP
00101400
00347800
001FE000
00064000
0001A000
000B9000
00280000
00A00000
01C00000
03400000
06000590
0D01BFD0
18005740
24000B00
30001F00
60007F00
6001E700
74078700
2FBD0700
06900700
00000700
00000700
00000100
ENDCHAR
STARTCHAR gbreve
ENCODING 287
SWIDTH 437 0
DWIDTH 11 0
BBX 10 30 0 -10
BITMAP
010140
074740
01FE00
006400
000000
000000
000000
006F80
01E7C0
0347C0
0A0AC0
1C1DC0
2829D0
3435D0
70A1D0
A1D1D0
A380E0
7F00E0
1800E0
0000E0
0000E0
0000E0
0000D0
0001C0
0001C0
000280
000700
000E00
007C00
0BE000
ENDCHAR
STARTCHAR Gdotaccent
ENCODING 288
SWIDTH 591 0
DWIDTH 14 0
BBX 13 23 1 -3
BITMAP
00080000
00180000
00000000
00000000
00019000
001F9000
00740000
01D00000
03400000
0A000000
0D001680
2802FF40
34015F00
60001E00
90003D00
D000BD00
D002DD00
E01B4D00
7EF80D00
1A900D00
00000D00
00000A00
00000500
ENDCHAR
STARTCHAR gdotaccent
ENCODING 289
SWIDTH 437 0
DWIDTH 11 0
BBX 10 26 0 -10
BITMAP
000900
001D00
000000
006F80
01E7C0
0347C0
0A0AC0
1C1DC0
2829D0
3435D0
70A1D0
A1D1D0
A380E0
7F00E0
1800E0
0000E0
0000E0
0000E0
0000D0
0001C0
0001C0
000280
000700
000E00
007C00
0BE000
ENDCHAR
STARTCHAR Gcommaaccent
ENCODING 290
SWIDTH 591 0
DWIDTH 14 0
BBX 14 24 0 -8
BITMAP
0001A000
000B9000
00280000
00A00000
01C00000
03400000
06000590
0D01BFD0
18005740
24000B00
30001F00
60007F00
6001E700
74078700
2FBD0700
06900700
00000700
00000700
00050100
000E0000
000A0000
000A0000
00090000
00040000
ENDCHAR
STARTCHAR Hcircumflex
ENCODING 292
SWIDTH 424 0
DWIDTH 10 0
BBX 10 25 0 0
BITMAP
004000
02D000
077000
091C00
1C0A00
240280
600040
000000
000000
600600
700340
700340
700240
300240
300280
300380
340B80
3479C0
3F81C0
3D00C0
3400C0
3400D0
3400D0
240090
240090
ENDCHAR
STARTCHAR hcircumflex
ENCODING 293
SWIDTH 466 0
DWIDTH 11 0
BBX 12 23 0 0
BITMAP
000400
000E00
002A80
0030A0
00A034
21C01D
724005
700000
700000
700000
700000
700690
702FB4
74B834
74F034
76D034
778034
774038
7E0028
7D0028
7C0028
740028
200028
ENDCHAR
STARTCHAR Hbar
ENCODING 294
SWIDTH 424 0
DWIDTH 10 0
BBX 10 16 0 0
BITMAP
600600
700340
700340
700240
7ABFC0
795680
300380
340B80
3479C0
3F81C0
3D00C0
3400C0
3400D0
3400D0
240090
240090
ENDCHAR
STARTCHAR hbar
ENCODING 295
SWIDTH 466 0
DWIDTH 11 0
BBX 13 18 -2 0
BITMAP
02000000
07000000
07000000
07000000
07000000
17AFC000
6B95A900
0702FB40
074B8340
074F0340
076D0340
07780340
07740380
07E00280
07D00280
07C00280
07400280
02000280
ENDCHAR
STARTCHAR Itilde
ENCODING 296
SWIDTH 153 0
DWIDTH 4 0
BBX 10 23 -3 0
BITMAP
1FC090
74E2D0
607B80
001900
000000
009000
00A000
00A000
006000
006000
006000
007000
007000
007000
007000
007000
007000
007000
007000
007000
007000
003000
002000
ENDCHAR
STARTCHAR itilde
ENCODING 297
SWIDTH 132 0
DWIDTH 3 0
BBX 9 19 -3 0
BITMAP
1A4040
B6C2C0
90EB40
407D00
000000
008000
00D000
00D000
01D000
01C000
01C000
01C000
01C000
00C000
00C000
00C000
00C000
00C000
00C000
ENDCHAR
STARTCHAR imacron
ENCODING 299
SWIDTH 132 0
DWIDTH 3 0
BBX 9 18 -3 0
BITMAP
056A80
BEA940
000000
000000
008000
00D000
00D000
01D000
01C000
01C000
01C000
01C000
00C000
00C000
00C000
00C000
00C000
00C000
ENDCHAR
STARTCHAR Ibreve
ENCODING 300
SWIDTH 153 0
DWIDTH 4 0
BBX 6 24 -1 0
BITMAP
4020
A0B0
2FD0
0A00
0000
0000
0900
0A00
0A00
0600
0600
0600
0700
0700
0700
0700
0700
0700
0700
0700
0700
0700
0300
0200
ENDCHAR
STARTCHAR ibreve
ENCODING 301
SWIDTH 132 0
DWIDTH 3 0
BBX 6 19 -1 0
BITMAP
8060
A1E0
2F80
0500
0000
0800
0D00
0D00
1D00
1C00
1C00
1C00
1C00
0C00
0C00
0C00
0C00
0C00
0C00
ENDCHAR
STARTCHAR Iogonek
ENCODING 302
SWIDTH 153 0
DWIDTH 4 0
BBX 6 23 0 -5
BITMAP
2400
2800
2800
1800
1800
1800
1C00
1C00
1C00
1C00
1C00
1C00
1C00
1C00
1C00
1C00
1C00
3C00
7000
A000
A050
7BE0
1A40
ENDCHAR
STARTCHAR iogonek
ENCODING 303
SWIDTH 132 0
DWIDTH 3 0
BBX 6 24 -1 -6
BITMAP
1400
1400
0000
0000
0800
0D00
0D00
1D00
1C00
1C00
1C00
1C00
0C00
0C00
0C00
0C00
0C00
0D00
3800
7000
A000
A060
3FE0
0540
ENDCHAR
STARTCHAR Idotaccent
ENCODING 304
SWIDTH 153 0
DWIDTH 4 0
BBX 2 22 1 0
BITMAP
50
90
00
00
80
D0
90
90
A0
A0
A0
A0
A0
A0
A0
A0
A0
A0
60
60
60
60
ENDCHAR
STARTCHAR dotlessi
ENCODING 305
SWIDTH 132 0
DWIDTH 3 0
BBX 3 14 0 0
BITMAP
20
34
34
74
70
70
70
70
30
30
30
30
30
30
ENDCHAR
STARTCHAR Jcircumflex
ENCODING 308
SWIDTH 371 0
DWIDTH 9 0
BBX 10 26 0 -2
BITMAP
001000
00B400
00DD00
028700
0301C0
0900B0
0C0010
001800
001800
001C00
000C00
000D00
000D00
000A00
000A00
000A00
000700
000700
000700
000300
400300
800300
600300
280600
0A5D00
015000
ENDCHAR
STARTCHAR jcircumflex
ENCODING 309
SWIDTH 112 0
DWIDTH 3 0
BBX 10 31 -4 -8
BITMAP
004000
00E000
02A800
070A00
090340
1C01D0
240040
000000
000000
000000
001000
007000
007000
007000
007000
007000
007000
007000
003000
003400
003400
003400
003400
002400
002400
002800
002400
403400
D07000
74E000
0BC000
ENDCHAR
STARTCHAR Kcommaaccent
ENCODING 310
SWIDTH 524 0
DWIDTH 13 0
BBX 13 24 0 -8
BITMAP
70000000
3400D000
34038000
240B0000
281D0000
28380000
18A00000
1DC00000
1E800000
1F000000
0E000000
0F955500
0EAAAA40
09000000
0A000000
05000000
00000000
00000000
00180000
002C0000
002C0000
00280000
00280000
00140000
ENDCHAR
STARTCHAR kcommaaccent
ENCODING 311
SWIDTH 428 0
DWIDTH 10 0
BBX 10 26 0 -8
BITMAP
280000
280000
280000
380000
3800A0
3802D0
340780
340B40
342E00
347C00
34F000
36D000
7F4000
7D0000
7E4000
76F900
701BD0
600190
500000
000000
005000
00F000
00A000
00A000
009000
004000
ENDCHAR
STARTCHAR Lacute
ENCODING 313
SWIDTH 537 0
DWIDTH 13 0
BBX 13 18 0 0
BITMAP
00010000
00074000
000E0000
74180000
74000000
74000000
34000000
34000000
38000000
38000000
38000000
38000000
38000140
38001B40
3801F400
381F4000
3EF40000
2E400000
ENDCHAR
STARTCHAR lacute
ENCODING 314
SWIDTH 137 0
DWIDTH 3 0
BBX 3 27 0 0
BITMAP
04
2C
74
90
00
00
10
60
70
30
30
30
30
34
24
24
24
24
24
24
24
28
28
28
28
38
14
ENDCHAR
STARTCHAR Lcommaaccent
ENCODING 315
SWIDTH 537 0
DWIDTH 13 0
BBX 13 23 0 -8
BITMAP
74000000
74000000
74000000
34000000
34000000
38000000
38000000
38000000
38000000
38000140
38001B40
3801F400
381F4000
3EF40000
2E400000
00000000
00000000
00180000
002C0000
001C0000
001C0000
00180000
00140000
ENDCHAR
STARTCHAR lcommaaccent
ENCODING 316
SWIDTH 137 0
DWIDTH 3 0
BBX 3 29 0 -8
BITMAP
10
60
70
30
30
30
30
34
24
24
24
24
24
24
24
28
28
28
28
38
14
00
00
20
74
34
34
30
10
ENDCHAR
STARTCHAR Lcaron
ENCODING 317
SWIDTH 537 0
DWIDTH 13 0
BBX 13 22 0 0
BITMAP
18008000
09074000
03590000
01E00000
00000000
00000000
00000000
74000000
74000000
74000000
34000000
34000000
38000000
38000000
38000000
38000000
38000140
38001B40
3801F400
381F4000
3EF40000
2E400000
ENDCHAR
STARTCHAR Ldot
ENCODING 319
SWIDTH 537 0
DWIDTH 13 0
BBX 13 15 0 0
BITMAP
74000000
74000000
74000000
34000000
34000000
38000000
38000000
38000000
38090000
38180140
38001B40
3801F400
381F4000
3EF40000
2E400000
ENDCHAR
STARTCHAR ldot
ENCODING 320
SWIDTH 267 0
DWIDTH 6 0
BBX 6 21 0 0
BITMAP
1000
6000
7000
3000
3000
3000
3000
3400
2400
2400
2400
2400
2400
2400
2490
2890
2800
2800
2800
3800
1400
ENDCHAR
STARTCHAR Lslash
ENCODING 321
SWIDTH 537 0
DWIDTH 13 0
BBX 14 15 -1 0
BITMAP
1D000000
1D000000
1D000000
0D000000
0D000000
0E000000
0E000000
0E1BC000
0FF90000
BF400050
0E0006D0
0E007D00
0E07D000
0FBD0000
0B900000
ENDCHAR
STARTCHAR lslash
ENCODING 322
SWIDTH 137 0
DWIDTH 3 0
BBX 9 21 -3 0
BITMAP
004000
018000
01C000
00C000
00C000
00C000
00C000
00D000
009000
009000
009000
009000
009000
009680
00BF80
6BE400
64A000
00A000
00A000
00E000
005000
ENDCHAR
STARTCHAR Nacute
ENCODING 323
SWIDTH 541 0
DWIDTH 13 0
BBX 12 21 0 0
BITMAP
000400
002C00
00B400
009028
00001C
10001D
74000D
3D000D
3F000D
3B800D
28E00D
28740D
282C09
180A09
1C038D
1C01DD
0C007E
0D002E
0D000F
0D000A
090000
ENDCHAR
STARTCHAR nacute
ENCODING 324
SWIDTH 483 0
DWIDTH 12 0
BBX 11 19 0 0
BITMAP
000400
001D00
007800
006000
000000
600780
701FE0
707870
34B030
34E034
35D034
39C038
3A8028
2B4028
2F0028
2E0028
2E0028
1D0018
1C0004
ENDCHAR
STARTCHAR Ncommaaccent
ENCODING 325
SWIDTH 541 0
DWIDTH 13 0
BBX 12 26 0 -8
BITMAP
000028
00001C
10001D
74000D
3D000D
3F000D
3B800D
28E00D
28740D
282C09
180A09
1C038D
1C01DD
0C007E
0D002E
0D000F
0D000A
090000
000000
000000
001800
002C00
001C00
001C00
001800
001400
ENDCHAR
STARTCHAR ncommaaccent
ENCODING 326
SWIDTH 483 0
DWIDTH 12 0
BBX 11 22 0 -8
BITMAP
600780
701FE0
707870
34B030
34E034
35D034
39C038
3A8028
2B4028
2F0028
2E0028
2E0028
1D0018
1C0004
000000
000000
002400
007400
003400
003400
003000
002000
ENDCHAR
STARTCHAR Ncaron
ENCODING 327
SWIDTH 541 0
DWIDTH 13 0
BBX 12 21 0 0
BITMAP
060060
0241D0
00D600
007828
00001C
10001D
74000D
3D000D
3F000D
3B800D
28E00D
28740D
282C09
180A09
1C038D
1C01DD
0C007E
0D002E
0D000F
0D000A
090000
ENDCHAR
STARTCHAR ncaron
ENCODING 328
SWIDTH 483 0
DWIDTH 12 0
BBX 11 19 0 0
BITMAP
090060
070280
018A00
00B400
000000
600780
701FE0
707870
34B030
34E034
35D034
39C038
3A8028
2B4028
2F0028
2E0028
2E0028
1D0018
1C0004
ENDCHAR
STARTCHAR napostrophe
ENCODING 329
SWIDTH 483 0
DWIDTH 12 0
BBX 11 21 0 0
BITMAP
024000
038000
038000
034000
030000
020000
000000
600780
701FE0
707870
34B030
34E034
35D034
39C038
3A8028
2B4028
2F0028
2E0028
2E0028
1D0018
1C0004
ENDCHAR
STARTCHAR Omacron
ENCODING 332
SWIDTH 382 0
DWIDTH 9 0
BBX 10 19 0 0
BITMAP
015AA0
1FAA50
000000
01FD00
039B00
0A0340
0D0280
2C0280
2801C0
3402C0
700280
700280
A00340
A00740
A00B00
600D00
702C00
2EB400
0B8000
ENDCHAR
STARTCHAR omacron
ENCODING 333
SWIDTH 266 0
DWIDTH 6 0
BBX 9 18 -1 0
BITMAP
05AA40
FAA940
000000
000000
000000
07D000
0BB000
0D1800
0C1800
1C1C00
181C00
281C00
281C00
282800
183400
1C7000
1ED000
0B4000
ENDCHAR
STARTCHAR Obreve
ENCODING 334
SWIDTH 382 0
DWIDTH 9 0
BBX 9 21 0 0
BITMAP
040500
0D1D00
07F800
019000
000000
01FD00
039B00
0A0340
0D0280
2C0280
2801C0
3402C0
700280
700280
A00340
A00740
A00B00
600D00
702C00
2EB400
0B8000
ENDCHAR
STARTCHAR obreve
ENCODING 335
SWIDTH 266 0
DWIDTH 6 0
BBX 7 18 0 0
BITMAP
1014
7474
1FE0
0640
0000
1F40
2EC0
3460
3060
7070
6070
A070
A070
A0A0
60D0
71C0
7B40
2D00
ENDCHAR
STARTCHAR Ohungarumlaut
ENCODING 336
SWIDTH 382 0
DWIDTH 9 0
BBX 10 21 0 0
BITMAP
000800
002DD0
00B780
004600
000000
01FD00
039B00
0A0340
0D0280
2C0280
2801C0
3402C0
700280
700280
A00340
A00740
A00B00
600D00
702C00
2EB400
0B8000
ENDCHAR
STARTCHAR ohungarumlaut
ENCODING 337
SWIDTH 266 0
DWIDTH 6 0
BBX 6 18 0 0
BITMAP
0600
1E70
39E0
1280
0000
1F40
2EC0
3460
3060
7070
6070
A070
A070
A0A0
60D0
71C0
7B40
2D00
ENDCHAR
STARTCHAR OE
ENCODING 338
SWIDTH 732 0
DWIDTH 18 0
BBX 17 17 0 0
BITMAP
0002406D00
01FB8BD000
039BFD0000
0A03D00000
0D02800000
2C02800000
2801C01800
3402C0B400
7002CB4000
7002F80000
A003E00000
A007D00180
A00BD00B40
600ED06800
702CD1D000
2EB4FE0000
0B80E40000
ENDCHAR
STARTCHAR oe
ENCODING 339
SWIDTH 628 0
DWIDTH 15 0
BBX 15 13 0 0
BITMAP
1F407E00
2EC1E680
346382C0
30670B40
707EB800
607F9000
A07E0004
A07C002C
A0BC0074
60EC01E0
71CC0780
7B4A6D00
2D029000
ENDCHAR
STARTCHAR Racute
ENCODING 340
SWIDTH 503 0
DWIDTH 12 0
BBX 11 23 1 0
BITMAP
000400
001D00
003800
006000
D01500
D2FFE0
EE4074
F00074
D001D0
D00B40
D07800
D69000
EE0000
F40000
F80000
EF4000
C2F400
C02F40
C002F4
C00018
C00000
C00000
800000
ENDCHAR
STARTCHAR racute
ENCODING 341
SWIDTH 396 0
DWIDTH 10 0
BBX 9 18 0 0
BITMAP
000400
003800
00B000
008000
000000
000000
607FC0
70F500
31C000
368000
274000
274000
1B4000
1B4000
1F0000
0F0000
0F0000
0A0000
ENDCHAR
STARTCHAR Rcommaaccent
ENCODING 342
SWIDTH 503 0
DWIDTH 12 0
BBX 11 27 1 -8
BITMAP
D01500
D2FFE0
EE4074
F00074
D001D0
D00B40
D07800
D69000
EE0000
F40000
F80000
EF4000
C2F400
C02F40
C002F4
C00018
C00000
C00000
800000
000000
000000
005000
00E000
00A000
00A000
009000
008000
ENDCHAR
STARTCHAR rcommaaccent
ENCODING 343
SWIDTH 396 0
DWIDTH 10 0
BBX 9 20 0 -8
BITMAP
607FC0
70F500
31C000
368000
274000
274000
1B4000
1B4000
1F0000
0F0000
0F0000
0A0000
000000
000000
009000
01D000
00D000
00D000
00C000
008000
ENDCHAR
STARTCHAR Rcaron
ENCODING 344
SWIDTH 503 0
DWIDTH 12 0
BBX 11 24 1 0
BITMAP
180090
060240
024900
00F400
000000
D01500
D2FFE0
EE4074
F00074
D001D0
D00B40
D07800
D69000
EE0000
F40000
F80000
EF4000
C2F400
C02F40
C002F4
C00018
C00000
C00000
800000
ENDCHAR
STARTCHAR rcaron
ENCODING 345
SWIDTH 396 0
DWIDTH 10 0
BBX 9 19 0 0
BITMAP
240280
1C0A00
062800
02D000
000000
000000
000000
607FC0
70F500
31C000
368000
274000
274000
1B4000
1B4000
1F0000
0F0000
0F0000
0A0000
ENDCHAR
STARTCHAR Sacute
ENCODING 346
SWIDTH 541 0
DWIDTH 13 0
BBX 13 22 0 0
BITMAP
00010000
00070000
001E0000
00180000
00015000
001FF000
01A04000
07400000
1D000000
38000000
70000000
A0000000
A0000000
74000000
1E500000
01AFE900
00001740
00000740
00006D00
001BE000
02F90000
01400000
ENDCHAR
STARTCHAR sacute
ENCODING 347
SWIDTH 366 0
DWIDTH 9 0
BBX 9 19 0 -1
BITMAP
001000
007400
01E000
018000
000000
000000
01BC00
0B4400
1C0000
340000
700000
601900
7AFF40
190240
000700
001D00
00B400
07D000
050000
ENDCHAR
STARTCHAR Scircumflex
ENCODING 348
SWIDTH 541 0
DWIDTH 13 0
BBX 13 25 0 0
BITMAP
00040000
001D0000
00374000
0061D000
00C07000
02802C00
03000400
00015000
001FF000
01A04000
07400000
1D000000
38000000
70000000
A0000000
A0000000
74000000
1E500000
01AFE900
00001740
00000740
00006D00
001BE000
02F90000
01400000
ENDCHAR
STARTCHAR scircumflex
ENCODING 349
SWIDTH 366 0
DWIDTH 9 0
BBX 9 21 0 -1
BITMAP
004000
02D000
077000
091C00
1C0A00
340280
600040
000000
01BC00
0B4400
1C0000
340000
700000
601900
7AFF40
190240
000700
001D00
00B400
07D000
050000
ENDCHAR
STARTCHAR Scedilla
ENCODING 350
SWIDTH 541 0
DWIDTH 13 0
BBX 13 25 0 -7
BITMAP
00015000
001FF000
01A04000
07400000
1D000000
38000000
70000000
A0000000
A0000000
74000000
1E500000
01AFE900
00001740
00000740
00006D00
001BE000
02F9C000
0141C000
0001D000
0000F900
00006F40
000002C0
000017C0
0000FE40
00004000
ENDCHAR
STARTCHAR scedilla
ENCODING 351
SWIDTH 366 0
DWIDTH 9 0
BBX 9 20 0 -8
BITMAP
01BC00
0B4400
1C0000
340000
700000
601900
7AFF40
190240
000700
001D00
00B400
07D000
068000
028000
01F400
00BE00
000780
0007C0
01BF40
015400
ENDCHAR
STARTCHAR Scaron
ENCODING 352
SWIDTH 541 0
DWIDTH 13 0
BBX 13 22 0 0
BITMAP
06002400
01809000
00924000
003D0000
00015000
001FF000
01A04000
07400000
1D000000
38000000
70000000
A0000000
A0000000
74000000
1E500000
01AFE900
00001740
00000740
00006D00
001BE000
02F90000
01400000
ENDCHAR
STARTCHAR scaron
ENCODING 353
SWIDTH 366 0
DWIDTH 9 0
BBX 9 19 0 -1
BITMAP
600240
280900
092400
038000
000000
000000
01BC00
0B4400
1C0000
340000
700000
601900
7AFF40
190240
000700
001D00
00B400
07D000
050000
ENDCHAR
STARTCHAR Tcommaaccent
ENCODING 354
SWIDTH 595 0
DWIDTH 14 0
BBX 17 25 0 -8
BITMAP
000295AB40
05ABFEA400
BF96C00000
1001C00000
0001C00000
0000C00000
0000D00000
0000D00000
0000900000
0000A00000
0000A00000
0000B00000
0000700000
0000700000
0000700000
0000340000
0000240000
0000000000
0000000000
0000180000
00002C0000
00001C0000
00001C0000
0000180000
0000140000
ENDCHAR
STARTCHAR tcommaaccent
ENCODING 355
SWIDTH 268 0
DWIDTH 6 0
BBX 8 26 -1 -8
BITMAP
0700
0600
0600
0A00
0A05
0BBD
1FE0
BE00
5A00
0A00
0A00
0A00
0700
0700
0700
0700
0700
0700
0100
0000
0180
02C0
02C0
0280
0280
0140
ENDCHAR
STARTCHAR Tcaron
ENCODING 356
SWIDTH 595 0
DWIDTH 14 0
BBX 17 23 0 0
BITMAP
0018018000
0009074000
0003580000
0001E00000
0000000000
0000000000
000295AB40
05ABFEA400
BF96C00000
1001C00000
0001C00000
0000C00000
0000D00000
0000D00000
0000900000
0000A00000
0000A00000
0000B00000
0000700000
0000700000
0000700000
0000340000
0000240000
ENDCHAR
STARTCHAR Tbar
ENCODING 358
SWIDTH 595 0
DWIDTH 14 0
BBX 17 17 0 0
BITMAP
000295AB40
05ABFEA400
BF96C00000
1001C00000
0001C00000
0016EF4000
00AAE50000
0000D00000
0000900000
0000A00000
0000A00000
0000B00000
0000700000
0000700000
0000700000
0000340000
0000240000
ENDCHAR
STARTCHAR Utilde
ENCODING 360
SWIDTH 450 0
DWIDTH 11 0
BBX 11 23 0 -3
BITMAP
0BE060
2C74F0
242ED0
000A40
000000
100060
740070
7400B0
7400B0
7400F0
3400F0
3401E0
3402E0
3402E0
3403A0
340760
340970
281C30
1EB430
069034
000024
000024
000010
ENDCHAR
STARTCHAR utilde
ENCODING 361
SWIDTH 387 0
DWIDTH 9 0
BBX 9 18 0 -1
BITMAP
2F8180
A1C3C0
D0BF40
002800
000000
200500
700A00
300A00
300A00
300A00
340A00
340E00
341E00
342F00
287B00
1DE300
0F8340
000140
ENDCHAR
STARTCHAR Umacron
ENCODING 362
SWIDTH 450 0
DWIDTH 11 0
BBX 11 21 0 -3
BITMAP
015AA0
2EAA50
000000
100060
740070
7400B0
7400B0
7400F0
3400F0
3401E0
3402E0
3402E0
3403A0
340760
340970
281C30
1EB430
069034
000024
000024
000010
ENDCHAR
STARTCHAR umacron
ENCODING 363
SWIDTH 387 0
DWIDTH 9 0
BBX 9 19 0 -1
BITMAP
056A80
BEA940
000000
000000
000000
000000
200500
700A00
300A00
300A00
300A00
340A00
340E00
341E00
342F00
287B00
1DE300
0F8340
000140
ENDCHAR
STARTCHAR Ubreve
ENCODING 364
SWIDTH 450 0
DWIDTH 11 0
BBX 11 21 0 -3
BITMAP
010140
034740
01FE00
106460
740070
7400B0
7400B0
7400F0
3400F0
3401E0
3402E0
3402E0
3403A0
340760
340970
281C30
1EB430
069034
000024
000024
000010
ENDCHAR
STARTCHAR ubreve
ENCODING 365
SWIDTH 387 0
DWIDTH 9 0
BBX 9 19 0 -1
BITMAP
040200
0A0E00
03FC00
00A000
000000
000000
200500
700A00
300A00
300A00
300A00
340A00
340E00
341E00
342F00
287B00
1DE300
0F8340
000140
ENDCHAR
STARTCHAR Uring
ENCODING 366
SWIDTH 450 0
DWIDTH 11 0
BBX 11 23 0 -3
BITMAP
001000
02FD00
0B0700
070B00
02F900
100060
740070
7400B0
7400B0
7400F0
3400F0
3401E0
3402E0
3402E0
3403A0
340760
340970
281C30
1EB430
069034
000024
000024
000010
ENDCHAR
STARTCHAR uring
ENCODING 367
SWIDTH 387 0
DWIDTH 9 0
BBX 9 17 0 -1
BITMAP
07F800
0D0D00
0D0D00
06E800
200500
700A00
300A00
300A00
300A00
340A00
340E00
341E00
342F00
287B00
1DE300
0F8340
000140
ENDCHAR
STARTCHAR Uhungarumlaut
ENCODING 368
SWIDTH 450 0
DWIDTH 11 0
BBX 11 23 0 -3
BITMAP
006000
01E700
039E00
012800
000000
100060
740070
7400B0
7400B0
7400F0
3400F0
3401E0
3402E0
3402E0
3403A0
340760
340970
281C30
1EB430
069034
000024
000024
000010
ENDCHAR
STARTCHAR uhungarumlaut
ENCODING 369
SWIDTH 387 0
DWIDTH 9 0
BBX 9 17 0 -1
BITMAP
014000
076800
0EB400
049000
200500
700A00
300A00
300A00
300A00
340A00
340E00
341E00
342F00
287B00
1DE300
0F8340
000140
ENDCHAR
STARTCHAR Uogonek
ENCODING 370
SWIDTH 450 0
DWIDTH 11 0
BBX 13 22 0 -7
BITMAP
10006000
74007000
7400B000
7400B000
7400F000
3400F000
3401E000
3402E000
3402E000
3403A000
34076000
34097000
281C3000
1EB43000
06903400
00007400
0001F400
00029000
00034000
00034140
0002EF40
00006400
ENDCHAR
STARTCHAR uogonek
ENCODING 371
SWIDTH 387 0
DWIDTH 9 0
BBX 11 18 0 -6
BITMAP
200500
700A00
300A00
300A00
300A00
340A00
340E00
341E00
342F00
287B00
1DE300
0F8740
001E40
002800
003400
003414
002EF4
000690
ENDCHAR
STARTCHAR Wcircumflex
ENCODING 372
SWIDTH 878 0
DWIDTH 21 0
BBX 20 25 0 -1
BITMAP
00003C0000
00006A0000
0000D28000
000280A000
0003003800
000A001400
0000000002
0000000007
0000000006
20000A000A
74000F400D
38001F801C
1C002A8018
0D0025C028
0A0030D034
0B0060A070
0740907060
0380C034A0
02C1801CD0
02C2400EC0
01D30007C0
00E7000380
00BE000140
003D000000
0010000000
ENDCHAR
STARTCHAR wcircumflex
ENCODING 373
SWIDTH 566 0
DWIDTH 14 0
BBX 13 23 0 0
BITMAP
00040000
002D0000
00770000
0091C000
01C0A000
02402800
06000400
00000000
00000000
00000000
00040000
602C0240
342E0240
283B4240
1C368240
0D34D240
0A747280
07B42A80
03F01F80
01F00B80
00F00380
00B00140
00600000
ENDCHAR
STARTCHAR Ycircumflex
ENCODING 374
SWIDTH 483 0
DWIDTH 12 0
BBX 11 26 0 0
BITMAP
001000
00B400
00DD00
028700
0701C0
0900B0
1C0010
000004
00000C
000018
000024
A00034
340070
1D00A0
0B00D0
0381C0
00E280
007F40
001F00
000E00
001D00
001C00
002800
003400
007000
006000
ENDCHAR
STARTCHAR ycircumflex
ENCODING 375
SWIDTH 363 0
DWIDTH 9 0
BBX 9 32 0 -9
BITMAP
010000
038000
0AA000
0C2800
280D00
700740
900140
000000
000000
000000
000100
000340
600340
740340
2C0340
0E0340
074300
028700
00E700
007B00
003F00
001F00
000B00
000600
000600
000A00
000A00
000A00
000900
000D00
000D00
000D00
ENDCHAR
STARTCHAR Ydieresis
ENCODING 376
SWIDTH 483 0
DWIDTH 12 0
BBX 11 19 0 0
BITMAP
000004
01C74C
018618
000024
A00034
340070
1D00A0
0B00D0
0381C0
00E280
007F40
001F00
000E00
001D00
001C00
002800
003400
007000
006000
ENDCHAR
STARTCHAR Zacute
ENCODING 377
SWIDTH 670 0
DWIDTH 16 0
BBX 16 23 0 0
BITMAP
00004000
0002C000
00074000
00090000
00000000
00000000
15555540
2AAABFD0
00000780
00000F00
00002D00
00007400
0001E000
00038000
000B0000
002D0000
00740000
01E00000
03800000
0B000000
2D000000
7EAAAAFD
7FAAAAA4
ENDCHAR
STARTCHAR zacute
ENCODING 378
SWIDTH 618 0
DWIDTH 15 0
BBX 16 18 0 0
BITMAP
00004000
0001D000
00078000
00060000
00000000
00000000
0006D000
01BED000
6F92C000
24038000
000B4000
000E0000
001C0000
00340000
00700004
00A01AFD
00EBFE94
01FA5000
ENDCHAR
STARTCHAR Zdotaccent
ENCODING 379
SWIDTH 670 0
DWIDTH 16 0
BBX 16 20 0 0
BITMAP
00014000
00028000
00000000
15555540
2AAABFD0
00000780
00000F00
00002D00
00007400
0001E000
00038000
000B0000
002D0000
00740000
01E00000
03800000
0B000000
2D000000
7EAAAAFD
7FAAAAA4
ENDCHAR
STARTCHAR zdotaccent
ENCODING 380
SWIDTH 618 0
DWIDTH 15 0
BBX 16 15 0 0
BITMAP
00020000
00070000
00000000
0006D000
01BED000
6F92C000
24038000
000B4000
000E0000
001C0000
00340000
00700004
00A01AFD
00EBFE94
01FA5000
ENDCHAR
STARTCHAR Zcaron
ENCODING 381
SWIDTH 670 0
DWIDTH 16 0
BBX 16 22 0 0
BITMAP
00600240
00180900
00092400
0003D000
00000000
15555540
2AAABFD0
00000780
00000F00
00002D00
00007400
0001E000
00038000
000B0000
002D0000
00740000
01E00000
03800000
0B000000
2D000000
7EAAAAFD
7FAAAAA4
ENDCHAR
STARTCHAR zcaron
ENCODING 382
SWIDTH 618 0
DWIDTH 15 0
BBX 16 17 0 0
BITMAP
02402800
01C0A000
00628000
002D0000
00000000
0006D000
01BED000
6F92C000
24038000
000B4000
000E0000
001C0000
00340000
00700004
00A01AFD
00EBFE94
01FA5000
ENDCHAR
STARTCHAR florin
ENCODING 402
SWIDTH 345 0
DWIDTH 8 0
BBX 9 28 -1 -6
BITMAP
001000
00BC00
00EA00
01D200
01C000
02C000
028000
028000
028000
028040
028BC0
02FE40
0B9000
1A8000
018000
018000
018000
01C000
01C000
01C000
01C000
01C000
01D000
01D000
01D000
01D000
16D000
6F8000
ENDCHAR
STARTCHAR AEacute
ENCODING 508
SWIDTH 708 0
DWIDTH 17 0
BBX 17 22 0 0
BITMAP
0007400000
000E000000
0018000000
0000000000
0A00001400
0B4706E400
0F876E4000
0EC3E40000
0D93400000
1C63400000
1C32400400
1C26406000
1C1A478000
281EB80000
280FD00000
287FC00000
3F9BC00780
3803C02D00
3003C1E000
7002DB4000
7002F80000
1001500000
ENDCHAR
STARTCHAR aeacute
ENCODING 509
SWIDTH 705 0
DWIDTH 17 0
BBX 17 18 0 0
BITMAP
0000100000
0000740000
0000E00000
0001800000
0000054000
007C2FE000
01FD787400
038DE0B400
0B0ED69000
1D1FFD0000
2C2FE00000
347F800340
70E7400B00
A1C7401D00
D383407400
DB0381D000
BD03FE4000
2001100000
ENDCHAR
STARTCHAR Oslashacute
ENCODING 510
SWIDTH 382 0
DWIDTH 9 0
BBX 9 24 0 -2
BITMAP
000400
002C00
007400
009000
000000
000600
01FE00
039F00
0A1F40
0D2A80
2C3680
2831C0
3462C0
709280
70C280
A18340
A24740
A30B00
660D00
792C00
2EB400
1F8000
280000
240000
ENDCHAR
STARTCHAR oslashacute
ENCODING 511
SWIDTH 266 0
DWIDTH 6 0
BBX 7 21 0 -2
BITMAP
0040
01C0
0740
0900
0000
0024
1FB0
2EE0
34E0
31E0
72B0
6370
A670
A970
ACA0
78D0
75C0
7B40
7D00
D000
8000
ENDCHAR
STARTCHAR Scommaaccent
ENCODING 536
SWIDTH 541 0
DWIDTH 13 0
BBX 13 26 0 -8
BITMAP
00015000
001FF000
01A04000
07400000
1D000000
38000000
70000000
A0000000
A0000000
74000000
1E500000
01AFE900
00001740
00000740
00006D00
001BE000
02F90000
01400000
00000000
00000000
00180000
002C0000
001C0000
001C0000
00180000
00140000
ENDCHAR
STARTCHAR scommaaccent
ENCODING 537
SWIDTH 366 0
DWIDTH 9 0
BBX 9 20 0 -8
BITMAP
01BC00
0B4400
1C0000
340000
700000
601900
7AFF40
190240
000700
001D00
00B400
07D000
050000
000000
018000
02C000
01C000
01C000
018000
014000
ENDCHAR
STARTCHAR circumflex
ENCODING 710
SWIDTH 390 0
DWIDTH 9 0
BBX 9 7 0 16
BITMAP
004000
02D000
037400
0A1C00
1C0A00
2402C0
600040
ENDCHAR
STARTCHAR caron
ENCODING 711
SWIDTH 390 0
DWIDTH 9 0
BBX 8 4 1 15
BITMAP
6002
241D
0D64
0780
ENDCHAR
STARTCHAR breve
ENCODING 728
SWIDTH 390 0
DWIDTH 9 0
BBX 7 4 1 14
BITMAP
1014
7474
1FE0
0640
ENDCHAR
STARTCHAR dotaccent
ENCODING 729
SWIDTH 128 0
DWIDTH 3 0
BBX 2 2 0 13
BITMAP
20
60
ENDCHAR
STARTCHAR ring
ENCODING 730
SWIDTH 266 0
DWIDTH 6 0
BBX 6 5 0 12
BITMAP
0100
2FD0
B070
70B0
2F90
ENDCHAR
STARTCHAR ogonek
ENCODING 731
SWIDTH 366 0
DWIDTH 9 0
BBX 6 7 2 -6
BITMAP
0400
2C00
7400
A000
A000
7AE0
2F80
ENDCHAR
STARTCHAR tilde
ENCODING 732
SWIDTH 458 0
DWIDTH 11 0
BBX 9 4 1 13
BITMAP
7F4180
E2C780
C0EE00
006800
ENDCHAR
STARTCHAR hungarumlaut
ENCODING 733
SWIDTH 239 0
DWIDTH 6 0
BBX 6 4 0 11
BITMAP
0800
2DD0
B7C0
5600
ENDCHAR
STARTCHAR Wgrave
ENCODING 7808
SWIDTH 878 0
DWIDTH 21 0
BBX 20 24 0 -1
BITMAP
0000140000
00001C0000
00000A0000
0000020000
0000000000
0000000002
0000000007
0000000006
20000A000A
74000F400D
38001F801C
1C002A8018
0D0025C028
0A0030D034
0B0060A070
0740907060
0380C034A0
02C1801CD0
02C2400EC0
01D30007C0
00E7000380
00BE000140
003D000000
0010000000
ENDCHAR
STARTCHAR wgrave
ENCODING 7809
SWIDTH 566 0
DWIDTH 14 0
BBX 13 18 0 0
BITMAP
00100000
00280000
001D0000
00050000
00000000
00040000
602C0240
342E0240
283B4240
1C368240
0D34D240
0A747280
07B42A80
03F01F80
01F00B80
00F00380
00B00140
00600000
ENDCHAR
STARTCHAR Wacute
ENCODING 7810
SWIDTH 878 0
DWIDTH 21 0
BBX 20 23 0 -1
BITMAP
0000040000
00001D0000
0000780000
0000600000
0000000002
0000000007
0000000006
20000A000A
74000F400D
38001F801C
1C002A8018
0D0025C028
0A0030D034
0B0060A070
0740907060
0380C034A0
02C1801CD0
02C2400EC0
01D30007C0
00E7000380
00BE000140
003D000000
0010000000
ENDCHAR
STARTCHAR wacute
ENCODING 7811
SWIDTH 566 0
DWIDTH 14 0
BBX 13 18 0 0
BITMAP
00004000
00028000
000B0000
00080000
00000000
00040000
602C0240
342E0240
283B4240
1C368240
0D34D240
0A747280
07B42A80
03F01F80
01F00B80
00F00380
00B00140
00600000
ENDCHAR
STARTCHAR Wdieresis
ENCODING 7812
SWIDTH 878 0
DWIDTH 21 0
BBX 20 21 0 -1
BITMAP
000071C000
0000518000
0000000002
0000000007
0000000006
20000A000A
74000F400D
38001F801C
1C002A8018
0D0025C028
0A0030D034
0B0060A070
0740907060
0380C034A0
02C1801CD0
02C2400EC0
01D30007C0
00E7000380
00BE000140
003D000000
0010000000
ENDCHAR
STARTCHAR wdieresis
ENCODING 7813
SWIDTH 566 0
DWIDTH 14 0
BBX 13 18 0 0
BITMAP
0071D000
00618000
00000000
00000000
00000000
00040000
602C0240
342E0240
283B4240
1C368240
0D34D240
0A747280
07B42A80
03F01F80
01F00B80
00F00380
00B00140
00600000
ENDCHAR
STARTCHAR Ygrave
ENCODING 7922
SWIDTH 483 0
DWIDTH 12 0
BBX 11 24 0 0
BITMAP
005000
007000
002800
000800
000000
000004
00000C
000018
000024
A00034
340070
1D00A0
0B00D0
0381C0
00E280
007F40
001F00
000E00
001D00
001C00
002800
003400
007000
006000
ENDCHAR
STARTCHAR ygrave
ENCODING 7923
SWIDTH 363 0
DWIDTH 9 0
BBX 9 27 0 -9
BITMAP
010000
074000
02C000
008000
000000
000100
000340
600340
740340
2C0340
0E0340
074300
028700
00E700
007B00
003F00
001F00
000B00
000600
000600
000A00
000A00
000A00
000900
000D00
000D00
000D00
ENDCHAR
STARTCHAR endash
ENCODING 8211
SWIDTH 399 0
DWIDTH 10 0
BBX 9 4 0 4
BITMAP
000680
00BF80
6B9000
640000
ENDCHAR
STARTCHAR emdash
ENCODING 8212
SWIDTH 549 0
DWIDTH 13 0
BBX 12 4 0 4
BITMAP
000005
001AFE
6BFA50
650000
ENDCHAR
STARTCHAR quoteleft
ENCODING 8216
SWIDTH 155 0
DWIDTH 4 0
BBX 2 7 1 8
BITMAP
C0
D0
D0
D0
90
90
50
ENDCHAR
STARTCHAR quoteright
ENCODING 8217
SWIDTH 155 0
DWIDTH 4 0
BBX 2 7 1 8
BITMAP
C0
D0
D0
D0
90
90
50
ENDCHAR
STARTCHAR quotesinglbase
ENCODING 8218
SWIDTH 155 0
DWIDTH 4 0
BBX 2 7 1 0
BITMAP
80
D0
E0
A0
A0
60
60
ENDCHAR
STARTCHAR quotedblleft
ENCODING 8220
SWIDTH 212 0
DWIDTH 5 0
BBX 5 7 0 12
BITMAP
6100
7240
3240
3240
3240
3240
2000
ENDCHAR
STARTCHAR quotedblright
ENCODING 8221
SWIDTH 212 0
DWIDTH 5 0
BBX 5 7 0 12
BITMAP
6100
7240
3240
3240
3240
3240
2000
ENDCHAR
STARTCHAR quotedblbase
ENCODING 8222
SWIDTH 212 0
DWIDTH 5 0
BBX 5 7 0 0
BITMAP
6100
7240
3240
3240
3240
2240
2000
ENDCHAR
STARTCHAR dagger
ENCODING 8224
SWIDTH 268 0
DWIDTH 6 0
BBX 8 19 -1 -1
BITMAP
0700
0600
0600
0A00
0A05
0BBD
1FE0
BE00
5A00
0A00
0A00
0A00
0700
0700
0700
0700
0700
0700
0100
ENDCHAR
STARTCHAR daggerdbl
ENCODING 8225
SWIDTH 326 0
DWIDTH 8 0
BBX 8 20 0 -1
BITMAP
0100
0700
0700
0700
0700
0705
07BE
1FE4
BF00
5B1A
0BF9
7F40
5700
0700
0700
0700
0300
0300
0340
0100
ENDCHAR
STARTCHAR bullet
ENCODING 8226
SWIDTH 189 0
DWIDTH 5 0
BBX 3 4 1 5
BITMAP
64
FC
F8
50
ENDCHAR
STARTCHAR ellipsis
ENCODING 8230
SWIDTH 387 0
DWIDTH 9 0
BBX 9 2 0 0
BITMAP
105140
75D340
ENDCHAR
STARTCHAR guilsinglleft
ENCODING 8249
SWIDTH 409 0
DWIDTH 10 0
BBX 9 12 1 3
BITMAP
000280
000B00
007C00
01E000
0B4000
2D0000
B00000
780000
1F4000
02E400
007E00
000A00
ENDCHAR
STARTCHAR guilsinglright
ENCODING 8250
SWIDTH 450 0
DWIDTH 11 0
BBX 9 13 1 3
BITMAP
900000
B90000
1B8000
01B800
001F00
000340
000700
001D00
00B400
02D000
1F4000
780000
A00000
ENDCHAR
STARTCHAR fraction
ENCODING 8260
SWIDTH 306 0
DWIDTH 7 0
BBX 7 19 0 -2
BITMAP
0014
0024
0030
0060
0090
00C0
0180
0240
0340
0700
0A00
0D00
0C00
1800
2400
3000
6000
9000
8000
ENDCHAR
STARTCHAR Euro
ENCODING 8364
SWIDTH 589 0
DWIDTH 14 0
BBX 14 19 0 -1
BITMAP
00005000
0007B800
000D0C00
00280000
00340000
00700000
00A00000
00D04000
1AFE4000
3B900000
02805000
025BD000
1BE50000
BB400050
034000D0
02800780
01D56E00
007FE400
00010000
ENDCHAR
STARTCHAR trademark
ENCODING 8482
SWIDTH 1278 0
DWIDTH 31 0
BBX 30 19 0 0
BITMAP
0000000100000100
00000003D0000700
000295ABF0000B00
05ABFEA6A8000F00
BF96C0029D001B00
1001C0018A002640
0001C00187403240
0000C00182806240
0000D001C1D09240
0000D001C0A0C180
00009000C0758180
0000A000D02A4180
0000A000D01F01C0
0000B000D00900C0
00007000D00000C0
00007000E00000D0
00007000E00000E0
00003400E00000A0
00002400A00000A0
ENDCHAR
STARTCHAR minus
ENCODING 8722
SWIDTH 358 0
DWIDTH 9 0
BBX 7 2 1 6
BITMAP
56A8
AA94
ENDCHAR
STARTCHAR commaaccent
ENCODING 63171
SWIDTH 450 0
DWIDTH 11 0
BBX 2 6 4 -8
BITMAP
50
E0
A0
A0
90
40
ENDCHAR
STARTCHAR fi
ENCODING 64257
SWIDTH 409 0
DWIDTH 10 0
BBX 9 22 0 0
BITMAP
004000
02F000
03A800
074800
070600
0B0200
0A0000
0A0000
0A0140
0A0280
0A2F80
0BFB80
2E4280
6A0280
0A0280
060280
070280
070280
070280
070280
070280
030280
ENDCHAR
STARTCHAR fl
ENCODING 64258
SWIDTH 416 0
DWIDTH 10 0
BBX 9 22 0 0
BITMAP
004000
02F000
03AA00
074B40
070240
0B0240
0A0280
0A0180
0A0180
0A0280
0A2F80
0BF980
2E41C0
6A01C0
0A00C0
0600C0
0700C0
0701C0
0701C0
0701C0
0701C0
0301C0
ENDCHAR
STARTCHAR .notdef
ENCODING -1
SWIDTH 450 0
DWIDTH 11 0
BBX 1 1 0 0
BITMAP
00
ENDCHAR
STARTCHAR .null
ENCODING -1
SWIDTH 0 0
DWIDTH 0 0
BBX 1 1 0 0
BITMAP
00
ENDCHAR
STARTCHAR nonmarkingreturn
ENCODING -1
SWIDTH 450 0
DWIDTH 11 0
BBX 1 1 0 0
BITMAP
00
ENDCHAR
ENDFONT
